<svg width="82" height="78" viewBox="0 0 82 78" fill="none" xmlns="http://www.w3.org/2000/svg">
<path d="M4.51596 46.6116C4.25093 48.1903 4.17555 50.1052 5.46339 51.0727C5.96081 51.3845 6.51885 51.587 7.10051 51.6667C7.68216 51.7463 8.27411 51.7014 8.83707 51.5348C13.4657 50.5306 19.2192 48.0569 26.0775 42.4628C26.6504 48.2568 27.7251 53.7596 31.1958 59.6834C32.1897 61.3847 35.7032 63.7701 37.3479 64.0098C38.8604 64.0792 40.363 63.7331 41.6926 63.009C43.0223 62.285 44.1283 61.2106 44.8906 59.9025C49.1118 51.6018 48.3829 46.7236 48.7221 41.905C57.1124 48.9245 61.2495 51.1386 66.1138 53.0963C67.7866 53.7645 68.8863 53.6302 70.3325 51.636C70.9474 50.4747 71.3908 49.2305 71.6488 47.942C72.6004 41.4038 71.6251 40.6193 70.8382 34.4455C66.1958 22.3517 57.2994 14.5267 43.8489 10.2677C40.5444 9.18586 37.02 8.95721 33.6034 9.60303C27.0843 10.966 21.1188 14.2394 16.4674 19.0061C10.2893 26.2932 6.0949 37.1892 4.51596 46.6116Z" fill="#D9083C"/>
<path d="M7.13456 47.9092C7.27902 47.8035 7.43814 47.7195 7.60687 47.6598L8.96783 47.0616C9.57009 46.8153 10.2881 46.5548 11.1352 46.0781C11.9823 45.6015 12.9329 45.2366 13.9629 44.6443C14.4646 44.3532 15.0091 44.0154 15.5515 43.7315C16.0938 43.4476 16.6434 43.0245 17.2133 42.6543C18.3895 41.9301 19.5395 41.0191 20.7697 40.1C26.021 35.9299 30.4162 30.7835 33.7131 24.9443C34.4359 23.5913 35.1617 22.3053 35.6915 21.0416C35.9681 20.4204 36.2406 19.8083 36.505 19.2145C36.7694 18.6207 36.9494 18.044 37.1579 17.502C37.6338 16.4331 37.8741 15.4017 38.1702 14.5155C38.4662 13.6293 38.6556 12.8598 38.8063 12.2263C38.957 11.5929 39.0852 11.1574 39.1839 10.7635C39.2167 10.5882 39.2739 10.4183 39.3538 10.2589C39.3491 10.4366 39.3255 10.6132 39.2834 10.7858C39.207 11.1787 39.1173 11.6752 39.0052 12.2711C38.8626 13.0553 38.6746 13.8305 38.4422 14.5929C38.1828 15.6189 37.8711 16.6309 37.5082 17.6251C37.2682 18.1641 37.0891 18.763 36.8785 19.3589C36.668 19.9547 36.3457 20.5556 36.0651 21.186C35.5038 22.4467 34.8196 23.7621 34.0978 25.1374C32.4367 28.0782 30.5033 30.8566 28.3231 33.4361C26.1036 35.9823 23.6531 38.3175 21.003 40.4118C19.7464 41.3411 18.569 42.2399 17.3877 42.9509C16.7955 43.3221 16.244 43.7005 15.6894 44.0118L14.0683 44.8992C13.0312 45.5321 12.0624 45.8889 11.2529 46.3057C10.5297 46.6474 9.7886 46.9496 9.0327 47.2109L7.6302 47.6811C7.47258 47.7727 7.30662 47.849 7.13456 47.9092Z" fill="#D9083C"/>
<g opacity="0.3">
<path opacity="0.3" d="M19.3908 41.5988C18.948 41.9052 18.441 42.3801 18.6508 42.8676C18.8607 43.3551 19.5196 43.3748 19.9675 43.2786C22.389 42.8752 24.6897 41.9353 26.701 40.5276C28.7123 39.1199 30.3832 37.2802 31.5914 35.1431C32.0158 40.1223 33.6004 44.9328 36.2183 49.1894C36.2985 49.363 36.4142 49.5178 36.5578 49.644C36.7015 49.7702 36.8699 49.8649 37.0524 49.922C37.6118 50.0178 38.0326 49.417 38.2735 48.9004C40.3031 44.5103 40.9589 39.6094 40.155 34.8401C42.6972 38.4239 47.4374 40.611 51.6616 41.6707C51.4548 41.3218 51.2106 40.9965 50.9332 40.7006C45.0466 32.4095 40.2112 21.9046 39.108 11.8682C36.897 17.375 34.8682 23.8495 31.5712 28.7962C28.3685 33.8045 24.2335 38.1508 19.3908 41.5988Z" fill="black"/>
</g>
<path d="M51.2847 59.2354C51.1573 59.1281 51.0474 59.0016 50.959 58.8605L50.1068 57.7258C49.7355 57.2321 49.2872 56.6165 48.8287 55.876C48.3703 55.1355 47.7829 54.3158 47.2515 53.3457C46.7201 52.3757 46.0588 51.3041 45.5032 50.0934C44.9476 48.8828 44.3381 47.6701 43.7369 46.3406C41.2206 40.5225 39.5881 34.3609 38.8935 28.0602C38.7523 26.6071 38.6009 25.2261 38.551 23.9123C38.5011 22.5984 38.4744 21.4043 38.4965 20.2976C38.5185 19.1909 38.5679 18.1948 38.6183 17.3196C38.6686 16.4444 38.733 15.685 38.8177 15.0769C38.9024 14.4688 38.9504 14.0413 38.9963 13.6677C39.0029 13.5027 39.0349 13.3397 39.0911 13.1845C39.0911 13.1845 39.1123 13.3581 39.0999 13.681L39.0157 15.0994C38.9625 15.7106 38.9153 16.4558 38.9056 17.3381C38.8959 18.2205 38.8231 19.1951 38.859 20.2948C38.8948 21.3944 38.9184 22.62 38.9795 23.8841C39.0406 25.1482 39.193 26.5516 39.3382 27.9955C39.7261 31.1196 40.3149 34.2154 41.1009 37.2637C41.9239 40.3016 42.9397 43.284 44.1421 46.1926C44.722 47.5454 45.2705 48.7967 45.8678 49.9383C46.4651 51.08 46.9923 52.1576 47.5278 53.1185C48.0633 54.0793 48.5846 54.9245 49.0349 55.6832C49.4853 56.442 49.889 57.0596 50.2298 57.5725L51.0037 58.76C51.1189 58.9047 51.2135 59.0647 51.2847 59.2354V59.2354Z" fill="#D9083C"/>
<path d="M26.0008 63.2382C26.0514 63.0646 26.1253 62.8987 26.2204 62.7449C26.3831 62.3795 26.5906 61.9136 26.9026 61.3848C27.2147 60.856 27.5736 60.0744 27.9742 59.2238C28.3748 58.3732 28.8699 57.4333 29.3356 56.3381C30.2955 54.1821 31.4426 51.6059 32.5015 48.6621C33.5604 45.7183 34.6184 42.4567 35.5457 38.9727C36.473 35.4886 37.1321 32.115 37.652 29.0297C38.1718 25.9444 38.4762 23.1463 38.6615 20.7878C38.7882 19.6182 38.8254 18.5511 38.8951 17.6079C38.9648 16.6647 38.9917 15.8666 39.0155 15.1986L39.0815 13.6735C39.0819 13.4948 39.1024 13.3167 39.1427 13.1425C39.1813 13.3182 39.1968 13.498 39.1891 13.6777L39.2084 15.2078C39.2201 15.8698 39.2206 16.6801 39.219 17.6426C39.2173 18.6052 39.1659 19.655 39.0585 20.8551C38.9138 23.2207 38.6144 26.032 38.1494 29.1417C37.6844 32.2514 36.9897 35.6311 36.0644 39.1598C35.1392 42.6885 34.0669 45.9329 32.9724 48.8828C31.878 51.8326 30.7147 54.4454 29.6899 56.5505C29.2059 57.6376 28.6884 58.5785 28.2513 59.4129C27.8141 60.2472 27.4299 60.9628 27.0975 61.5372C26.7651 62.1117 26.5364 62.5025 26.328 62.8476C26.2323 62.9884 26.1227 63.1193 26.0008 63.2382V63.2382Z" fill="#D9083C"/>
<path d="M39.1281 10.815C39.1281 10.815 39.1595 10.9165 39.1817 11.1125L39.3019 11.998C39.4172 12.7718 39.4692 13.9333 39.7719 15.3926C40.4211 19.5462 41.5863 23.6025 43.2405 27.4673C43.8002 28.6689 44.3192 29.9617 45.0382 31.2233C45.3891 31.8611 45.7055 32.5274 46.097 33.1724L47.3172 35.1277C49.1276 37.9132 51.2068 40.5145 53.525 42.8941C56.1192 45.4873 58.9775 47.8018 62.0535 49.8C62.8725 50.296 63.6753 50.8286 64.5208 51.3145L67.1029 52.694C67.4854 52.9392 67.9318 53.0656 68.3861 53.0573C68.8179 53.0022 69.2137 52.7882 69.4962 52.457C70.0921 51.6861 70.5204 50.7994 70.7539 49.8534C71.0349 48.8932 71.2409 47.9126 71.3701 46.9205C71.5485 45.9053 71.5999 44.9539 71.6767 43.9701C71.7619 42.0374 71.6676 40.1008 71.3951 38.1855C71.1118 36.3407 70.6679 34.5242 70.0686 32.7566C69.4715 31.0666 68.7364 29.4285 67.8705 27.8591C66.2469 24.9644 64.1711 22.3476 61.7216 20.108C60.5262 19.1051 59.415 18.085 58.2744 17.2049C57.1632 16.3667 56.0076 15.5891 54.8125 14.8755C51.2179 12.7032 47.3243 11.0692 43.256 10.0257C41.8114 9.65621 40.6733 9.43412 39.9058 9.28944L39.0256 9.12742C38.9234 9.11971 38.8228 9.09706 38.7272 9.0602C38.8307 9.05271 38.9348 9.0586 39.0368 9.07768L39.9191 9.18588C40.6988 9.30316 41.844 9.48462 43.3008 9.82673C47.4188 10.8072 51.3656 12.4021 55.0087 14.5578C56.1586 15.2449 57.339 16.0113 58.5101 16.872C59.6813 17.7328 60.7985 18.7885 62.0122 19.7995C64.5169 22.0483 66.6386 24.69 68.2941 27.6208C69.1778 29.213 69.9276 30.8759 70.5358 32.5924C71.1536 34.3885 71.6095 36.2363 71.8978 38.1137C72.1754 40.0613 72.2771 42.03 72.2016 43.9958C72.1166 44.9979 72.0541 45.999 71.8838 46.996C71.7523 48.0122 71.5429 49.0168 71.2574 50.001C71.0047 51.0231 70.5345 51.9786 69.8788 52.8024C69.5133 53.2384 68.9968 53.5205 68.4324 53.5924C67.8837 53.6153 67.3408 53.4727 66.8741 53.1833L64.223 51.7621C63.3542 51.2548 62.5656 50.7395 61.7415 50.2303C58.6457 48.1932 55.7731 45.8356 53.1715 43.1965C50.8419 40.7836 48.7564 38.1465 46.9454 35.3235C46.5347 34.648 46.1249 33.9949 45.7375 33.3407C45.35 32.6866 45.0245 32.0163 44.6777 31.3692C43.9627 30.0986 43.4518 28.7874 42.9003 27.5676C41.2621 23.6708 40.1411 19.5762 39.5657 15.3884C39.3878 14.2471 39.2676 13.0975 39.2055 11.9441C39.1713 11.5786 39.1582 11.2882 39.1432 11.0516C39.1331 10.9731 39.128 10.8941 39.1281 10.815Z" fill="#D9083C"/>
<path d="M13.7278 33.1007C13.9248 32.6804 14.1617 32.2801 14.4352 31.9051C14.921 31.1581 15.6711 30.1128 16.6446 28.8605C19.2319 25.618 22.0854 22.5972 25.1753 19.8295C28.2589 17.0602 31.4915 14.4615 34.8587 12.0451C36.1468 11.1189 37.2063 10.3865 37.9498 9.8966C38.3182 9.61978 38.7141 9.38154 39.1311 9.18561C38.8046 9.51425 38.4459 9.80927 38.0604 10.0662L35.0778 12.3397C32.5585 14.2611 29.1168 16.9759 25.5284 20.2166C22.4604 22.9693 19.5895 25.9342 16.9368 29.0891C15.9217 30.3119 15.125 31.3146 14.6017 32.023C14.3468 32.4103 14.054 32.7713 13.7278 33.1007V33.1007Z" fill="#D9083C"/>
<path d="M39.9936 8.74857C40.4561 8.98281 40.8993 9.25337 41.3191 9.55766C42.1757 10.0923 43.3377 10.949 44.7605 12.0313C48.4277 14.9063 51.7327 18.2156 54.6029 21.8866C57.4646 25.5764 59.8803 29.5913 61.8 33.848C62.5442 35.471 63.0835 36.8167 63.421 37.7551C63.6128 38.2266 63.762 38.7143 63.8668 39.2124C63.603 38.7682 63.3785 38.302 63.1955 37.8189C62.8052 36.9008 62.209 35.5845 61.4303 33.9899C59.4491 29.8263 57.0322 25.8845 54.2199 22.2305C51.3608 18.5882 48.1091 15.272 44.5237 12.3418C43.1395 11.222 42.007 10.3237 41.1849 9.76063C40.7565 9.46199 40.3575 9.12309 39.9936 8.74857V8.74857Z" fill="#D9083C"/>
</svg>
