<svg width="491" height="469" viewBox="0 0 491 469" fill="none" xmlns="http://www.w3.org/2000/svg">
<path d="M75 469L91.7688 388L106 390.738L82.7551 469H75Z" fill="#263238"/>
<path d="M490.75 376H68V394.49H490.75V376Z" fill="#455A64"/>
<path d="M157.56 376.28C157.517 376.349 157.471 376.416 157.42 376.48L156.98 377.03C156.363 377.704 155.644 378.278 154.85 378.73C153.586 379.434 152.203 379.898 150.77 380.1C148.883 380.373 146.974 380.457 145.07 380.35C142.772 380.231 140.484 379.967 138.22 379.56C135.639 379.084 133.03 378.774 130.41 378.63C124.87 378.43 118.85 379.88 112.83 382.04C106.81 384.2 101.16 386.65 95.77 388.14C93.225 388.873 90.6223 389.388 87.99 389.68C85.6932 389.926 83.3768 389.926 81.08 389.68C77.7431 389.363 74.5117 388.341 71.6 386.68C70.5371 386.073 69.553 385.338 68.67 384.49C68.67 384.49 68.75 384.49 68.88 384.62L69.44 385.04C70.1592 385.578 70.9143 386.065 71.7 386.5C74.6089 388.09 77.8169 389.057 81.12 389.34C83.3919 389.567 85.6816 389.55 87.95 389.29C90.5525 388.981 93.1248 388.456 95.64 387.72C100.99 386.21 106.64 383.72 112.64 381.59C118.64 379.46 124.77 377.97 130.4 378.19C133.042 378.352 135.671 378.686 138.27 379.19C140.518 379.607 142.788 379.887 145.07 380.03C146.951 380.161 148.84 380.104 150.71 379.86C152.105 379.677 153.459 379.254 154.71 378.61C155.786 378.001 156.749 377.213 157.56 376.28Z" fill="#263238"/>
<path d="M111.31 376.56C110.91 376.954 110.482 377.318 110.03 377.65C108.813 378.576 107.526 379.405 106.18 380.13C104.169 381.198 102.055 382.059 99.87 382.7C97.1851 383.459 94.4185 383.892 91.63 383.99C86.5467 384.193 81.4896 383.164 76.89 380.99C75.4837 380.329 74.2638 379.329 73.34 378.08C73.0979 377.732 72.8998 377.356 72.75 376.96C72.67 376.69 72.63 376.55 72.65 376.54C72.8951 377.035 73.1793 377.51 73.5 377.96C74.4604 379.125 75.6794 380.049 77.06 380.66C81.629 382.708 86.6061 383.683 91.61 383.51C96.6205 383.359 101.535 382.099 106 379.82C107.35 379.133 108.652 378.358 109.9 377.5C110.343 377.148 110.815 376.834 111.31 376.56Z" fill="#263238"/>
<path d="M210.51 388.27L211.16 388.51C211.796 388.733 212.448 388.907 213.11 389.03C215.637 389.477 218.241 389.069 220.51 387.87V388.11C217.856 386.07 214.675 384.828 211.34 384.53C207.122 384.116 202.893 385.215 199.41 387.63C198.954 387.892 198.62 388.324 198.48 388.83C198.48 389.084 198.555 389.333 198.695 389.545C198.836 389.756 199.036 389.922 199.27 390.02C199.783 390.299 200.336 390.495 200.91 390.6L202.71 391.01C205.13 391.55 207.63 392.08 210.22 392.46C212.865 392.88 215.543 393.06 218.22 393C219.594 392.964 220.964 392.834 222.32 392.61C223 392.49 223.68 392.36 224.32 392.18C225.006 392.034 225.676 391.82 226.32 391.54C227.313 391.144 228.192 390.509 228.88 389.69C229.201 389.3 229.415 388.833 229.501 388.335C229.587 387.837 229.542 387.325 229.37 386.85C228.961 385.908 228.26 385.123 227.37 384.61C226.483 384.064 225.545 383.605 224.57 383.24C220.791 381.822 216.812 381.005 212.78 380.82C205.969 380.442 199.155 381.502 192.78 383.93C188.471 385.552 184.412 387.77 180.72 390.52C179.43 391.52 178.43 392.3 177.8 392.88L177.05 393.52L176.79 393.72C176.79 393.72 176.86 393.63 177.02 393.48L177.73 392.81C178.34 392.2 179.32 391.38 180.59 390.36C189.812 383.297 201.25 379.751 212.85 380.36C216.92 380.543 220.936 381.366 224.75 382.8C225.762 383.176 226.733 383.651 227.65 384.22C228.639 384.789 229.418 385.663 229.87 386.71C230.07 387.269 230.123 387.87 230.023 388.455C229.923 389.04 229.674 389.59 229.3 390.05C228.559 390.934 227.611 391.621 226.54 392.05C225.877 392.341 225.187 392.565 224.48 392.72C223.79 392.9 223.1 393.03 222.4 393.15C221.021 393.382 219.628 393.516 218.23 393.55C215.529 393.608 212.828 393.421 210.16 392.99C207.56 392.6 205.05 392.06 202.63 391.51L200.83 391.09C200.207 390.977 199.606 390.764 199.05 390.46C198.761 390.297 198.509 390.076 198.31 389.81C198.103 389.52 198.007 389.165 198.04 388.81C198.111 388.493 198.247 388.194 198.44 387.932C198.633 387.671 198.878 387.452 199.16 387.29C202.736 384.829 207.073 383.726 211.39 384.18C214.789 384.507 218.024 385.801 220.71 387.91L220.88 388.05L220.69 388.15C218.363 389.349 215.697 389.723 213.13 389.21C212.211 389.044 211.325 388.727 210.51 388.27Z" fill="#263238"/>
<path d="M264.91 376.76C265.104 377.041 265.243 377.357 265.32 377.69C265.603 378.584 265.698 379.527 265.6 380.46C265.184 383.538 263.735 386.383 261.49 388.53C260.344 389.772 259.051 390.87 257.64 391.8C256.479 392.545 255.234 393.15 253.93 393.6C253.052 393.892 252.152 394.116 251.24 394.27C250.911 394.339 250.576 394.37 250.24 394.36C250.24 394.26 251.66 394.06 253.81 393.25C255.068 392.767 256.268 392.146 257.39 391.4C258.749 390.465 260 389.382 261.12 388.17C263.292 386.096 264.74 383.379 265.25 380.42C265.36 379.189 265.245 377.949 264.91 376.76Z" fill="#263238"/>
<path d="M340.82 393.52C340.212 392.852 339.564 392.221 338.88 391.63C336.986 390.055 334.703 389.019 332.27 388.63C330.608 388.388 328.916 388.436 327.27 388.77C325.337 389.221 323.352 389.406 321.37 389.32C319.2 389.12 317.25 387.81 315.49 386.43C313.739 384.934 311.743 383.75 309.59 382.93C305.345 381.513 300.766 381.443 296.48 382.73C292.986 383.791 289.704 385.453 286.78 387.64C284.799 389.11 282.921 390.713 281.16 392.44L279.73 393.86C279.568 394.032 279.394 394.193 279.21 394.34C279.334 394.14 279.481 393.955 279.65 393.79C279.95 393.44 280.41 392.93 281.02 392.3C282.734 390.507 284.586 388.852 286.56 387.35C289.495 385.087 292.81 383.367 296.35 382.27C300.731 380.923 305.424 380.982 309.77 382.44C311.962 383.283 313.991 384.497 315.77 386.03C317.53 387.4 319.36 388.64 321.39 388.84C323.33 388.934 325.274 388.769 327.17 388.35C328.872 388.022 330.618 387.992 332.33 388.26C334.808 388.687 337.12 389.791 339.01 391.45C339.717 392.042 340.328 392.741 340.82 393.52Z" fill="#263238"/>
<path d="M408.6 376.18C408.471 376.407 408.317 376.618 408.14 376.81C407.687 377.408 407.203 377.982 406.69 378.53C404.834 380.571 402.765 382.408 400.52 384.01C397.211 386.423 393.617 388.418 389.82 389.95C387.582 390.874 385.27 391.61 382.91 392.15C380.381 392.768 377.792 393.103 375.19 393.15C370.153 393.13 365.17 392.11 360.53 390.15C356.744 388.602 353.166 386.586 349.88 384.15C347.658 382.515 345.605 380.662 343.75 378.62C343.07 377.92 342.63 377.3 342.3 376.91C342.132 376.711 341.978 376.501 341.84 376.28C342.037 376.452 342.221 376.64 342.39 376.84C342.74 377.21 343.2 377.84 343.9 378.49C345.8 380.464 347.876 382.261 350.1 383.86C353.384 386.248 356.947 388.226 360.71 389.75C365.291 391.685 370.207 392.704 375.18 392.75C377.749 392.697 380.304 392.362 382.8 391.75C385.134 391.219 387.422 390.5 389.64 389.6C393.417 388.106 396.999 386.162 400.31 383.81C402.556 382.242 404.646 380.46 406.55 378.49C407.25 377.82 407.7 377.21 408.06 376.84C408.219 376.604 408.4 376.383 408.6 376.18Z" fill="#263238"/>
<path d="M398.92 376C398.92 376 398.8 376.12 398.56 376.29C398.32 376.46 397.95 376.73 397.46 377.04C396.094 377.912 394.682 378.71 393.23 379.43C391.076 380.515 388.839 381.428 386.54 382.16C383.72 383.086 380.778 383.588 377.81 383.65C372.415 383.522 367.117 382.182 362.31 379.73C360.854 379.009 359.451 378.187 358.11 377.27C357.63 376.95 357.29 376.67 357.05 376.48C356.919 376.397 356.802 376.296 356.7 376.18C357.225 376.455 357.733 376.763 358.22 377.1C359.595 377.941 361.014 378.709 362.47 379.4C367.259 381.722 372.489 382.994 377.81 383.13C380.727 383.068 383.62 382.587 386.4 381.7C388.684 380.998 390.913 380.129 393.07 379.1C394.91 378.23 396.37 377.44 397.36 376.86C397.86 376.539 398.381 376.251 398.92 376Z" fill="#263238"/>
<path d="M441.9 377.9H441.41L440 377.82L439 377.75H437.81C436.96 377.75 435.98 377.75 434.91 377.75L433.23 377.85L431.42 378.06C430.16 378.17 428.84 378.46 427.42 378.7C424.41 379.348 421.455 380.228 418.58 381.33C415.725 382.483 412.957 383.844 410.3 385.4C409.11 386.18 407.94 386.85 406.94 387.62L405.45 388.69L404.19 389.82C403.34 390.47 402.64 391.14 402.01 391.72L401.12 392.52L400.43 393.23L399.43 394.23C399.32 394.351 399.196 394.459 399.06 394.55C399.06 394.55 399.15 394.4 399.35 394.16L400.26 393.16L400.93 392.4L401.78 391.57C402.4 390.97 403.09 390.27 403.94 389.57L405.24 388.48C405.71 388.12 406.24 387.76 406.72 387.38C407.72 386.59 408.89 385.89 410.08 385.1C412.745 383.5 415.534 382.116 418.42 380.96C421.321 379.846 424.307 378.97 427.35 378.34C428.77 378.11 430.1 377.83 431.35 377.74L433.18 377.55L434.88 377.5C435.853 377.444 436.828 377.444 437.8 377.5L439 377.55L440 377.67L441.38 377.86C441.554 377.839 441.731 377.852 441.9 377.9Z" fill="#263238"/>
<path d="M348.42 393.15C347.73 392.157 346.95 391.23 346.09 390.38C343.651 388.163 340.737 386.534 337.57 385.62C335.392 384.969 333.17 384.477 330.92 384.15C328.5 383.77 325.92 383.46 323.15 382.99C320.293 382.475 317.473 381.77 314.71 380.88C311.778 379.898 308.767 379.169 305.71 378.7C299.751 378.094 293.733 378.924 288.16 381.12C285.72 382.044 283.339 383.116 281.03 384.33C278.84 385.45 276.84 386.55 275.03 387.58C271.39 389.64 268.49 391.39 266.5 392.58L264.2 393.99L263.6 394.35C263.46 394.43 263.39 394.47 263.38 394.46C263.436 394.402 263.5 394.351 263.57 394.31L264.14 393.9C264.65 393.55 265.4 393.05 266.39 392.41C268.39 391.14 271.22 389.34 274.84 387.23C276.66 386.18 278.65 385.06 280.84 383.92C283.158 382.676 285.553 381.581 288.01 380.64C293.646 378.389 299.743 377.538 305.78 378.16C308.867 378.634 311.908 379.37 314.87 380.36C317.61 381.252 320.406 381.964 323.24 382.49C325.96 382.97 328.57 383.29 331 383.7C333.266 384.041 335.503 384.556 337.69 385.24C340.897 386.204 343.828 387.918 346.24 390.24C347.125 391.08 347.863 392.064 348.42 393.15Z" fill="#263238"/>
<path d="M253.2 376.28C253.233 376.674 253.213 377.071 253.14 377.46C252.983 378.528 252.704 379.575 252.31 380.58C251.029 383.941 248.764 386.837 245.81 388.89C242.794 390.757 239.56 392.244 236.18 393.32C234.89 393.75 233.84 394.06 233.11 394.25C232.733 394.373 232.344 394.453 231.95 394.49C232.299 394.303 232.668 394.156 233.05 394.05L236.05 392.98C239.355 391.807 242.529 390.292 245.52 388.46C248.376 386.452 250.608 383.679 251.96 380.46C252.491 379.104 252.906 377.706 253.2 376.28Z" fill="#263238"/>
<path opacity="0.3" d="M172.127 90.848C169.075 91.8437 166.079 93.0027 163.151 94.32C164.751 93.152 166.351 91.936 167.951 90.704C175.075 84.9747 181.855 78.8307 188.255 72.304C180.744 79.6003 172.724 86.3534 164.255 92.512C165.423 90.4837 166.449 88.3773 167.327 86.208C168.927 82.224 169.215 78.208 165.423 76.08C160.735 73.456 155.071 77.376 156.559 84.08C157.468 87.8228 159.237 91.3018 161.727 94.24C156.201 98.0659 150.428 101.524 144.447 104.592L143.887 104.88C145.152 102.69 146.269 100.418 147.231 98.08C148.735 94.112 149.119 90.08 145.311 87.968C140.623 85.328 134.959 89.264 136.463 95.968C137.356 99.6606 139.086 103.098 141.519 106.016C134.335 109.552 126.911 112.56 119.519 115.824L118.447 116.304C119.89 114.755 121.232 113.114 122.463 111.392C124.863 107.872 126.159 104.064 122.959 101.104C119.023 97.456 112.575 99.952 112.479 106.864C112.484 110.679 113.371 114.441 115.071 117.856C108.154 121.088 101.582 125.012 95.4554 129.568L95.2634 129.728C96.092 128.414 96.8504 127.058 97.5354 125.664C99.3434 121.808 100.015 117.84 96.3674 115.424C95.6261 114.914 94.7789 114.579 93.8894 114.444C93 114.309 92.0915 114.377 91.2322 114.643C90.3729 114.91 89.5852 115.367 88.9282 115.982C88.2713 116.597 87.7623 117.352 87.4394 118.192C86.9584 117.441 86.3058 116.816 85.5354 116.368C81.8714 114.256 78.2714 116.544 75.1834 119.776C74.3834 120.624 73.5834 121.536 72.8954 122.432C75.2774 115.821 78.2718 109.446 81.8393 103.392C85.2367 104.876 88.9001 105.654 92.6074 105.68C99.9034 105.68 102.975 99.6 99.3914 95.824C96.4794 92.768 92.3834 93.936 88.5114 96.176C87.2364 96.9194 86.0026 97.7312 84.8154 98.608C88.5244 93.0216 92.7338 87.784 97.3914 82.96C100.443 85.4286 103.99 87.2129 107.791 88.192C114.879 89.936 119.327 84.8 116.767 80.272C114.687 76.592 110.367 76.736 106.127 77.968C104.098 78.5751 102.11 79.3126 100.175 80.176C102.111 78.288 104.111 76.48 106.143 74.688C108.799 72.416 111.551 70.224 114.351 68.08C117.362 70.4824 120.846 72.2217 124.575 73.184C131.663 74.928 136.111 69.792 133.551 65.264C131.471 61.584 127.151 61.728 122.895 62.96C121.903 63.248 120.895 63.6 119.919 63.968C123.615 61.328 127.359 58.752 131.119 56.192L134.591 53.808C137.72 56.4286 141.393 58.3197 145.343 59.344C152.431 61.088 156.895 55.952 154.335 51.424C152.239 47.744 147.935 47.888 143.679 49.12C142.005 49.632 140.357 50.224 138.735 50.896L140.879 49.296C142.191 48.352 143.503 47.392 144.783 46.384C146.383 45.184 147.903 43.856 149.455 42.576C150.351 41.872 151.199 41.12 152.047 40.352C155.189 43.0005 158.885 44.9089 162.863 45.936C169.951 47.68 174.399 42.544 171.839 38.016C169.759 34.336 165.439 34.48 161.199 35.712C158.822 36.4467 156.492 37.3284 154.223 38.352C157.119 35.664 159.919 32.864 162.575 29.952C162.751 29.744 162.911 29.536 163.103 29.344C164.239 28.08 165.359 26.8 166.447 25.472C167.535 24.144 168.943 22.4 170.127 20.8C174.989 14.4181 178.992 7.42489 182.031 0C178.846 7.33667 174.709 14.2224 169.727 20.48C164.8 26.7637 159.299 32.5754 153.295 37.84L152.639 38.4C154.003 36.0774 155.211 33.6668 156.255 31.184C157.775 27.216 158.143 23.184 154.335 21.072C149.663 18.432 143.983 22.368 145.487 29.072C146.453 33.0417 148.382 36.7125 151.103 39.76L149.695 40.976L148.095 42.352C147.167 43.104 146.207 43.824 145.247 44.544C144.735 44.928 144.239 45.328 143.647 45.712C142.287 46.72 140.911 47.696 139.519 48.656L137.519 50.016L135.247 51.616C136.575 49.3494 137.741 46.9915 138.735 44.56C140.255 40.576 140.623 36.56 136.831 34.448C132.143 31.808 126.463 35.744 127.967 42.448C128.895 46.2988 130.733 49.8709 133.327 52.864L131.727 53.952L125.503 58.032L124.271 58.832L120.799 61.152L119.295 62.16C117.695 63.264 116.095 64.384 114.495 65.536C115.781 63.2334 116.904 60.8435 117.855 58.384C119.455 54.416 119.743 50.384 115.951 48.272C111.263 45.632 105.599 49.568 107.103 56.272C108.043 60.1744 109.922 63.7884 112.575 66.8C109.855 68.8 107.167 70.848 104.575 72.992C102.671 74.592 100.799 76.192 98.9594 77.92C99.761 76.4369 100.477 74.9091 101.103 73.344C102.607 69.36 102.991 65.344 99.1834 63.232C94.4954 60.592 88.8314 64.528 90.3354 71.232C91.2283 74.9246 92.9582 78.3624 95.3914 81.28C90.2093 86.4295 85.5419 92.0722 81.4554 98.128C81.9193 96.3814 82.272 94.6072 82.5114 92.816C83.0234 88.592 82.4154 84.624 78.2074 83.472C73.0234 82.048 68.4794 87.232 71.5674 93.408C73.3437 96.8079 75.8851 99.7491 78.9913 102C74.9609 108.583 71.595 115.551 68.9434 122.8C68.8741 121.284 68.7246 119.772 68.4954 118.272C67.7754 114.064 66.0794 110.432 61.7114 110.512C56.3354 110.624 53.4394 116.912 58.1594 121.936C60.6766 124.56 63.7489 126.589 67.1513 127.872C65.3317 133.468 63.8517 139.169 62.7194 144.944C62.5274 145.856 62.3834 146.768 62.2074 147.68C62.0154 147.856 61.8234 148.032 61.6474 148.224C61.4554 147.44 61.2313 146.624 60.9753 145.872C59.6313 141.84 57.3913 138.496 53.0873 139.264C47.8073 140.192 45.9033 146.816 51.3433 151.088C54.1081 153.198 57.2951 154.688 60.6873 155.456C60.6873 155.616 60.8154 155.76 60.8954 155.92C60.3034 160.256 59.8554 164.624 59.5834 169.008C59.3754 172.208 59.2633 175.552 59.1993 178.832C54.6233 178.832 51.3913 183.856 54.5434 189.296C55.8734 191.552 57.5778 193.564 59.5834 195.248C59.9674 201.408 60.5753 207.568 61.3913 213.68C60.7443 213.082 59.9525 212.662 59.094 212.463C58.2354 212.264 57.3398 212.292 56.4954 212.544C53.6154 213.328 52.3193 215.648 51.8554 218.496C50.8305 219.556 50.257 220.973 50.2553 222.448C48.1113 219.248 46.0794 216.048 44.1114 212.672C47.1155 210.369 49.606 207.464 51.4234 204.144C54.8634 197.744 50.9753 192.128 45.9673 193.488C41.8713 194.608 40.9753 198.768 41.1673 203.232C41.2313 204.925 41.3916 206.613 41.6474 208.288L39.5354 204.576C37.7754 201.376 36.3354 198.176 34.6073 194.976C34.1913 194.192 33.8233 193.376 33.4873 192.576C36.8582 190.878 39.8387 188.497 42.2393 185.584C46.8313 179.92 44.0633 173.696 38.8793 174.096C34.6553 174.432 32.9753 178.352 32.2714 182.768C31.997 184.693 31.8261 186.632 31.7593 188.576L30.2553 185.104C27.052 177.228 24.416 169.132 22.3673 160.88C26.1828 159.528 29.6484 157.342 32.5114 154.48C37.6474 149.28 35.5193 142.832 30.3193 142.704C26.0953 142.608 24.0313 146.336 22.8793 150.704C22.3147 153.023 21.8926 155.374 21.6153 157.744C20.4953 153.008 19.5353 148.208 18.7353 143.344C18.1913 140.368 17.8393 137.344 17.4713 134.336C21.5724 133.523 25.435 131.789 28.7673 129.264C34.5273 124.784 33.2633 118.064 28.1113 117.312C23.9353 116.656 21.4073 120.096 19.7113 124.24C18.7184 126.854 17.8848 129.525 17.2153 132.24C16.8953 128.752 16.5273 125.248 16.3673 121.744C15.8874 114.509 15.8874 107.251 16.3673 100.016C15.637 107.245 15.3857 114.514 15.6153 121.776C15.6153 125.12 15.9033 128.448 16.1113 131.792C15.1973 129.519 14.1281 127.311 12.9113 125.184C10.7353 121.52 7.82334 118.784 3.79134 120.384C-1.18466 122.432 -1.61666 129.312 4.62334 132.32C8.2832 134.001 12.2978 134.765 16.3193 134.544C16.6073 137.536 16.8633 140.512 17.3113 143.472C17.9353 148.272 18.7353 152.88 19.6793 157.536C18.6555 155.752 17.5171 154.037 16.2713 152.4C13.6313 149.056 10.3993 146.688 6.67134 148.848C2.01534 151.52 2.46334 158.448 9.03934 160.576C12.7604 161.732 16.7016 161.995 20.5433 161.344C22.3688 169.687 24.7692 177.893 27.7273 185.904L28.6713 188.304C27.8248 187.183 26.9111 186.114 25.9353 185.104C22.9753 182.032 19.5353 180 15.9673 182.544C11.5993 185.744 12.7673 192.464 19.4873 193.968C23.1961 194.719 27.0275 194.609 30.6873 193.648C31.0233 194.464 31.3594 195.248 31.7593 196.08C33.3593 199.376 34.7833 202.752 36.4633 205.984L37.8553 208.784C37.0233 208.064 36.1593 207.376 35.2633 206.736C31.7753 204.288 27.9993 202.944 24.9913 206.096C21.2793 209.984 23.6793 216.448 30.5913 216.656C34.1898 216.74 37.7625 216.03 41.0553 214.576C43.0393 218.16 45.0713 221.696 47.2793 225.168C48.0953 226.496 48.8793 227.808 49.8074 229.12C48.5521 227.972 47.2269 226.904 45.8393 225.92C42.3513 223.472 38.5753 222.128 35.5513 225.28C31.8553 229.168 34.2553 235.632 41.1673 235.84C45.1179 235.887 49.0229 234.993 52.5594 233.232C53.7114 234.832 54.8954 236.432 56.1114 238.032C53.5354 241.024 54.3833 246.032 59.6153 248.32C62.1564 249.379 64.8648 249.98 67.6153 250.096C67.9353 250.352 68.2554 250.608 68.6074 250.848L68.7673 250.976C72.074 263.328 75.994 275.499 80.5274 287.488C82.4473 292.592 84.5114 297.648 86.6394 302.672H67.4393V378.384H126.111V302.608H94.8794C92.2074 296.768 89.6314 290.864 87.2314 284.896C83.3114 275.104 79.7594 265.152 76.6714 255.056C77.1968 255.211 77.7311 255.334 78.2714 255.424C78.982 255.568 79.7107 255.6 80.4314 255.52L79.5993 250.256H79.0394C78.7056 250.209 78.3745 250.145 78.0474 250.064C77.3082 249.852 76.5862 249.585 75.8873 249.264L75.0554 248.88C78.1433 247.804 81.0109 246.178 83.5194 244.08C89.0714 239.28 87.5034 232.72 82.3194 232.16C78.1274 231.696 75.7594 235.248 74.3194 239.456C73.8874 240.656 73.5354 241.904 73.2314 243.12C72.9274 242 72.6234 240.88 72.3354 239.76C71.4874 236.448 70.7354 233.104 69.9674 229.76C73.3185 228.715 76.4329 227.024 79.1354 224.784C84.6874 219.984 83.1034 213.44 77.9354 212.88C73.7274 212.416 71.3754 215.968 69.9354 220.176C69.5034 221.392 69.1354 222.656 68.8153 223.904C68.3354 221.472 67.8713 219.024 67.4393 216.576C67.1353 214.768 66.8473 212.944 66.5753 211.12C66.4793 208.528 66.4314 205.936 66.4633 203.328C66.4633 201.904 66.4633 200.48 66.5913 199.056C69.7283 200.047 73.0183 200.465 76.3034 200.288C83.5993 199.808 86.2874 193.568 82.4794 190.032C79.3754 187.136 75.3594 188.576 71.6314 191.04C69.9596 192.176 68.3567 193.41 66.8314 194.736C67.2806 188.646 68.2061 182.601 69.5993 176.656C70.4158 173.154 71.4362 169.703 72.6553 166.32C76.0008 167.473 79.5379 167.968 83.0714 167.776C90.3674 167.312 93.0554 161.072 89.2474 157.52C86.1594 154.64 82.1273 156.064 78.3993 158.544C77.098 159.438 75.848 160.405 74.6553 161.44C76.0623 158.13 77.6982 154.922 79.5514 151.84C83.2264 145.621 87.8348 140.004 93.2154 135.184C96.0037 137.756 99.3017 139.713 102.895 140.928C109.839 143.2 114.655 138.4 112.495 133.696C110.687 129.872 106.431 129.696 102.047 130.608C100.358 130.969 98.6911 131.428 97.0554 131.984L97.1674 131.888C103.138 127.229 109.572 123.198 116.367 119.856C118.765 122.995 121.81 125.582 125.295 127.44C131.791 130.784 137.311 126.816 135.871 121.824C134.703 117.76 130.527 116.912 126.063 117.024C124.31 117.119 122.563 117.312 120.831 117.6C128.047 114.192 135.407 110.976 142.511 107.216H142.671C145.852 109.962 149.625 111.933 153.695 112.976C160.783 114.736 165.231 109.584 162.671 104.976C160.591 101.296 156.271 101.456 152.031 102.672C150.831 103.024 149.631 103.456 148.463 103.904C153.208 101.147 157.806 98.1452 162.239 94.912L162.607 95.312V95.104C165.819 97.8742 169.623 99.8719 173.727 100.944C180.799 102.688 185.263 97.552 182.703 92.944C180.687 89.472 176.431 89.616 172.127 90.848ZM60.2554 235.824C58.7994 234.128 57.4233 232.352 56.0793 230.56C56.3993 230.272 56.7513 229.952 57.1033 229.6C59.1027 230.223 61.1721 230.594 63.2633 230.704V231.04L64.2393 230.832C64.7514 233.36 65.2794 235.872 65.8393 238.384C65.1891 237.533 64.34 236.854 63.3664 236.408C62.3928 235.962 61.3245 235.761 60.2554 235.824ZM65.4714 175.584C64.9754 177.472 64.5594 179.36 64.1594 181.264L63.9194 180.928C63.9194 177.024 63.978 173.131 64.0954 169.248C64.2074 166.528 64.3993 163.824 64.6394 161.104C65.9558 162.445 67.403 163.651 68.9594 164.704C67.6052 168.265 66.4461 171.897 65.4873 175.584H65.4714ZM72.0314 157.664C72.1273 156.96 72.2074 156.24 72.2393 155.536V154.464C72.8153 154.288 73.4074 154.08 73.9834 153.84C73.3434 155.104 72.6714 156.384 72.0474 157.664H72.0314ZM80.3674 144.144C80.0909 143.511 79.6889 142.941 79.1856 142.468C78.6823 141.995 78.0882 141.629 77.4393 141.392C73.4874 139.792 70.2874 142.672 67.7434 146.352L67.6153 146.528H67.3594C67.0911 146.467 66.8181 146.43 66.5434 146.416C66.5244 146.191 66.5629 145.966 66.6553 145.76C67.6684 139.98 69.0363 134.268 70.7514 128.656C74.4243 129.122 78.1538 128.834 81.7114 127.808C83.9093 127.231 85.821 125.871 87.0873 123.984C87.7916 127.21 89.1354 130.262 91.0394 132.96C87.1031 136.308 83.5313 140.062 80.3834 144.16L80.3674 144.144Z" fill="#263238"/>
<path d="M153.903 327.297H96.0529V335.247H153.903V327.297Z" fill="#263238"/>
<path d="M154.013 335.347H95.9529V327.197H154.013V335.347ZM96.1528 335.147H153.813V327.397H96.1528V335.147Z" fill="#263238"/>
<path d="M101.423 332.597L109.743 373.687H140.563L148.613 335.247L101.423 332.597Z" fill="#263238"/>
<path d="M101.423 369.797L105.863 375.907H143.313L148.613 369.797H101.423Z" fill="#15171A"/>
<path d="M122.813 333.797C122.693 333.797 122.553 314.797 122.483 291.297C122.413 267.797 122.483 248.787 122.573 248.787C122.663 248.787 122.833 267.787 122.893 291.297C122.953 314.807 122.923 333.797 122.813 333.797Z" fill="#263238"/>
<path d="M135.703 286.167C135.661 286.32 135.608 286.471 135.543 286.616C135.403 286.936 135.233 287.346 135.023 287.846L134.653 288.727L134.263 289.806C134.123 290.196 133.973 290.617 133.813 291.047C133.653 291.477 133.543 291.966 133.393 292.466C132.703 294.79 132.162 297.155 131.773 299.547C131.322 302.483 131.021 305.44 130.873 308.406C130.661 313.804 130.815 319.21 131.333 324.586C131.523 326.656 131.703 328.317 131.843 329.477L131.993 330.806C132.011 330.959 132.011 331.114 131.993 331.267C131.941 331.121 131.908 330.97 131.893 330.816C131.833 330.466 131.753 330.026 131.663 329.496C131.483 328.346 131.243 326.686 131.023 324.616C130.416 319.229 130.223 313.803 130.443 308.387C130.591 305.405 130.901 302.434 131.373 299.486C131.786 297.081 132.36 294.705 133.093 292.376C133.253 291.886 133.383 291.376 133.553 290.966L134.033 289.727L134.443 288.656L134.863 287.776C135.103 287.286 135.293 286.887 135.453 286.577C135.515 286.428 135.599 286.29 135.703 286.167Z" fill="#263238"/>
<path d="M134.223 270.777C134.176 270.991 134.112 271.202 134.033 271.407L133.433 273.177L132.993 274.447C132.843 274.927 132.693 275.447 132.523 275.987C132.183 277.087 131.793 278.337 131.443 279.747C131.263 280.447 131.063 281.187 130.863 281.947C130.663 282.707 130.513 283.527 130.323 284.357C129.923 286.007 129.623 287.807 129.253 289.687C128.613 293.467 128.053 297.687 127.663 302.057C127.273 306.427 127.143 310.687 127.083 314.517C127.023 318.347 127.083 321.807 127.283 324.707C127.333 326.157 127.423 327.467 127.503 328.617C127.583 329.767 127.643 330.757 127.713 331.567C127.783 332.377 127.823 332.967 127.853 333.427C127.877 333.646 127.877 333.867 127.853 334.087C127.803 333.873 127.769 333.656 127.753 333.437C127.693 332.977 127.623 332.357 127.533 331.577C127.443 330.797 127.343 329.787 127.253 328.637C127.163 327.487 127.043 326.177 126.973 324.717C126.773 321.817 126.693 318.357 126.683 314.517C126.673 310.677 126.873 306.447 127.233 302.017C127.593 297.587 128.233 293.407 128.863 289.627C129.243 287.737 129.553 285.937 129.973 284.277C130.163 283.447 130.353 282.647 130.533 281.867C130.713 281.087 130.953 280.367 131.143 279.667C131.513 278.267 131.923 277.017 132.283 275.917C132.463 275.367 132.633 274.857 132.783 274.387C132.933 273.917 133.113 273.507 133.263 273.117L133.933 271.377C134.004 271.165 134.102 270.964 134.223 270.777Z" fill="#263238"/>
<path d="M119.153 337.167C119.141 337.094 119.141 337.02 119.153 336.947C119.153 336.773 119.133 336.553 119.093 336.287C119.093 335.687 118.993 334.837 118.923 333.767C118.783 331.547 118.583 328.387 118.343 324.497C117.843 316.667 117.113 305.857 115.803 293.967C115.123 288.027 114.343 282.377 113.533 277.257C113.103 274.707 112.713 272.257 112.263 270.007C111.813 267.757 111.423 265.637 111.023 263.717C110.623 261.797 110.213 260.077 109.873 258.557C109.533 257.037 109.213 255.737 108.943 254.667C108.673 253.597 108.483 252.807 108.343 252.217L108.193 251.577C108.18 251.504 108.18 251.429 108.193 251.357C108.22 251.425 108.243 251.495 108.263 251.567L108.453 252.197C108.613 252.787 108.843 253.597 109.133 254.627C109.423 255.657 109.773 256.987 110.133 258.507C110.493 260.027 110.943 261.737 111.343 263.657C111.743 265.577 112.223 267.657 112.643 269.947C113.063 272.237 113.503 274.637 113.953 277.197C114.783 282.317 115.573 287.967 116.243 293.927C117.563 305.827 118.243 316.647 118.673 324.477C118.883 328.397 119.033 331.567 119.123 333.757C119.123 334.837 119.193 335.677 119.213 336.287C119.213 336.557 119.213 336.767 119.213 336.937C119.204 337.016 119.184 337.093 119.153 337.167Z" fill="#263238"/>
<path d="M122.343 257.927C122.083 255.237 119.343 253.197 116.653 253.177C115.297 253.239 113.974 253.607 112.781 254.252C111.587 254.898 110.556 255.806 109.763 256.907C108.205 259.133 107.082 261.633 106.453 264.277C104.491 270.609 103.811 277.268 104.453 283.867C105.11 290.503 107.985 296.725 112.613 301.527C113.373 302.277 114.373 303.037 115.423 302.807C115.986 302.635 116.496 302.322 116.903 301.897C121.513 297.674 125.167 292.515 127.622 286.765C130.076 281.015 131.273 274.807 131.133 268.557C131.209 266.047 130.589 263.566 129.343 261.387C127.963 259.307 124.743 257.097 122.393 257.927" fill="#D9083C"/>
<path d="M102.123 236.337C100.843 238.637 99.5695 240.937 98.3029 243.237C98.2129 243.407 98.0928 243.587 97.9128 243.597C97.7328 243.607 97.5629 243.427 97.4529 243.257L87.3729 227.777L89.6929 226.467L102.123 236.337Z" fill="#D9083C"/>
<g opacity="0.2">
<path opacity="0.2" d="M102.123 236.337C100.843 238.637 99.5695 240.937 98.3029 243.237C98.2129 243.407 98.0928 243.587 97.9128 243.597C97.7328 243.607 97.5629 243.427 97.4529 243.257L87.3729 227.777L89.6929 226.467L102.123 236.337Z" fill="black"/>
</g>
<path d="M122.613 248.777L88.2129 228.487C87.8348 228.321 87.5343 228.017 87.3729 227.637C87.3535 227.373 87.4 227.109 87.5082 226.868C87.6165 226.627 87.7831 226.417 87.9929 226.257C90.3569 223.802 93.2228 221.886 96.3947 220.64C99.5667 219.394 102.97 218.847 106.373 219.037C109.775 219.281 113.066 220.35 115.961 222.152C118.857 223.953 121.27 226.433 122.993 229.377C126.313 235.307 126.423 243.147 122.613 248.777Z" fill="#D9083C"/>
<path d="M93.1329 222.006C93.2797 221.967 93.4309 221.947 93.5828 221.946C93.8828 221.946 94.3129 221.876 94.8829 221.886C96.4812 221.866 98.078 221.993 99.6528 222.266C104.899 223.153 109.785 225.511 113.743 229.066C117.666 232.659 120.5 237.281 121.923 242.406C122.349 243.951 122.634 245.531 122.773 247.126C122.833 247.686 122.823 248.126 122.843 248.416C122.864 248.569 122.864 248.724 122.843 248.876C122.843 248.876 122.773 248.256 122.633 247.136C121.788 240.317 118.549 234.02 113.493 229.366C108.348 224.819 101.767 222.227 94.9028 222.046C94.3125 222.063 93.7218 222.05 93.1329 222.006Z" fill="#263238"/>
<path d="M117.913 234.777C117.363 235.102 116.78 235.367 116.173 235.567C115.083 235.997 113.553 236.567 111.833 237.087C110.113 237.607 108.553 238.087 107.413 238.347C106.801 238.535 106.171 238.655 105.533 238.707C106.109 238.431 106.712 238.217 107.333 238.067L111.713 236.697L116.083 235.287C116.672 235.049 117.286 234.878 117.913 234.777Z" fill="#263238"/>
<path d="M112.503 220.227C112.973 222.764 113.037 225.359 112.693 227.917C112.525 226.641 112.458 225.353 112.493 224.067C112.391 222.788 112.394 221.504 112.503 220.227Z" fill="#263238"/>
<path d="M87.8729 228.097C88.6826 227.74 89.5184 227.446 90.3729 227.217C91.9329 226.737 94.1128 226.127 96.5428 225.547C98.9728 224.967 101.183 224.547 102.793 224.227C103.654 224.031 104.531 223.914 105.413 223.877C104.574 224.144 103.719 224.357 102.853 224.517C101.253 224.867 99.0529 225.357 96.6329 225.947C94.2129 226.537 92.0329 227.087 90.4529 227.497C89.6091 227.761 88.7467 227.962 87.8729 228.097Z" fill="#263238"/>
<path d="M106.713 251.547C103.713 249.307 100.623 248.867 96.9128 249.007C93.1986 249.257 89.5634 250.196 86.1929 251.777C80.3929 254.317 74.9428 258.067 71.4728 263.367C68.0028 268.667 66.8028 275.677 69.4028 281.457C69.6025 282.059 70.0198 282.565 70.5729 282.877C71.2166 283.061 71.9052 283.008 72.5129 282.727C79.1129 280.577 85.7529 278.407 91.8229 275.037C97.8929 271.667 103.403 266.977 106.663 260.857C107.499 259.41 108.03 257.807 108.223 256.147C108.313 255.317 108.226 254.477 107.965 253.683C107.705 252.89 107.278 252.162 106.713 251.547Z" fill="#D9083C"/>
<path d="M106.773 250.857C106.619 250.935 106.458 250.999 106.293 251.047L104.913 251.527L103.913 251.857L102.743 252.307C101.913 252.647 100.943 252.987 99.9229 253.477L98.3029 254.217C97.7429 254.477 97.1828 254.797 96.5828 255.097C95.3928 255.687 94.1829 256.437 92.8929 257.197C90.147 258.927 87.5361 260.862 85.0828 262.987C82.6654 265.149 80.4125 267.489 78.3428 269.987C77.4228 271.167 76.5228 272.277 75.7928 273.387C75.4128 273.937 75.0229 274.447 74.7029 274.977C74.3829 275.507 74.0629 275.977 73.7629 276.487C73.1429 277.437 72.6829 278.347 72.2429 279.137C72.0229 279.537 71.8129 279.897 71.6429 280.237C71.4729 280.577 71.3229 280.897 71.1829 281.187L70.5328 282.497C70.4629 282.654 70.3793 282.804 70.2828 282.947C70.327 282.781 70.3873 282.62 70.4628 282.467C70.6028 282.117 70.8028 281.667 71.0328 281.117C71.1628 280.827 71.3128 280.497 71.4628 280.117C71.6128 279.737 71.8328 279.397 72.0328 278.997C72.4628 278.197 72.9029 277.267 73.5129 276.307L74.4329 274.777C74.7529 274.237 75.1329 273.717 75.5029 273.157C76.2329 272.037 77.1328 270.917 78.0428 269.717C80.1106 267.183 82.3742 264.816 84.8129 262.637C87.281 260.497 89.916 258.557 92.6929 256.837C93.9929 256.077 95.2229 255.337 96.4329 254.757C97.0329 254.457 97.5928 254.147 98.1628 253.887L99.8029 253.177C100.803 252.697 101.803 252.377 102.663 252.057C103.093 251.907 103.483 251.747 103.853 251.627L104.853 251.327L106.263 250.927C106.428 250.877 106.6 250.853 106.773 250.857Z" fill="#263238"/>
<path d="M83.6628 263.367C81.3072 264.272 78.9036 265.046 76.4628 265.687C74.0628 266.459 71.6225 267.1 69.1528 267.607C71.5072 266.708 73.9072 265.934 76.3428 265.287C78.7457 264.513 81.1894 263.872 83.6628 263.367Z" fill="#263238"/>
<path d="M83.3629 279.247C83.2342 278.507 83.1806 277.757 83.2029 277.007C83.2029 275.617 83.2029 273.707 83.2029 271.587C83.2029 269.467 83.3729 267.587 83.4829 266.177C83.5049 265.425 83.6021 264.678 83.7728 263.947C83.8365 264.695 83.8365 265.448 83.7728 266.197C83.7728 267.717 83.6729 269.557 83.6129 271.597C83.5529 273.637 83.5129 275.487 83.4729 277.007C83.5058 277.755 83.469 278.505 83.3629 279.247Z" fill="#263238"/>
<path d="M96.9628 272.317C96.8528 272.317 96.4928 268.427 96.1528 263.617C95.8128 258.807 95.6429 254.907 95.7629 254.897C95.8829 254.887 96.2329 258.777 96.5729 263.597C96.9129 268.417 97.0828 272.307 96.9628 272.317Z" fill="#263238"/>
<path d="M80.0328 254.517C80.7994 254.428 81.5722 254.404 82.3428 254.447C83.7628 254.447 85.7229 254.497 87.8929 254.577C90.0629 254.657 92.0229 254.737 93.4429 254.817C94.2148 254.817 94.9849 254.891 95.7429 255.037C94.9767 255.132 94.2034 255.155 93.4329 255.107C92.0129 255.107 90.0529 255.057 87.8829 254.987C85.7129 254.917 83.7429 254.827 82.3229 254.737C81.5543 254.737 80.7874 254.663 80.0328 254.517Z" fill="#263238"/>
<path d="M114.033 303.377C114.018 303.22 114.018 303.063 114.033 302.907C114.033 302.56 114.013 302.11 113.973 301.557C113.973 300.377 113.913 298.677 113.973 296.557C114.033 294.437 114.153 291.957 114.403 289.187C114.653 286.417 115.053 283.397 115.613 280.237C116.173 277.077 116.863 274.097 117.613 271.407C118.363 268.717 119.063 266.327 119.753 264.337C120.443 262.347 121.043 260.767 121.493 259.677L122.013 258.437C122.071 258.288 122.141 258.144 122.223 258.007C122.197 258.164 122.153 258.319 122.093 258.467C121.973 258.797 121.823 259.217 121.643 259.737C121.233 260.837 120.643 262.437 120.033 264.437C119.423 266.437 118.673 268.817 117.973 271.497C117.273 274.177 116.623 277.157 116.053 280.307C115.483 283.457 115.053 286.477 114.823 289.227C114.593 291.977 114.383 294.477 114.313 296.567C114.243 298.657 114.193 300.357 114.193 301.567C114.193 302.117 114.193 302.567 114.193 302.917C114.164 303.077 114.11 303.233 114.033 303.377Z" fill="#263238"/>
<path d="M115.853 279.907C115.453 280.459 114.993 280.965 114.483 281.417C113.593 282.297 112.323 283.497 110.883 284.757C109.443 286.017 108.093 287.117 107.103 287.887C106.585 288.331 106.022 288.72 105.423 289.047C105.871 288.525 106.37 288.05 106.913 287.627L110.613 284.417L114.283 281.167C114.766 280.699 115.291 280.277 115.853 279.907Z" fill="#263238"/>
<path d="M126.743 288.677C126.202 288.049 125.711 287.38 125.273 286.677C124.333 285.307 123.173 283.597 121.873 281.677C120.573 279.757 119.363 278.117 118.403 276.767C117.89 276.108 117.425 275.413 117.013 274.687C117.603 275.284 118.138 275.934 118.613 276.627C119.613 277.837 120.843 279.547 122.183 281.477C123.523 283.407 124.683 285.197 125.493 286.477C125.97 287.174 126.388 287.91 126.743 288.677Z" fill="#263238"/>
<path d="M121.033 261.097C121.093 261.197 117.483 263.627 112.953 266.537C108.423 269.447 104.723 271.717 104.653 271.627C104.583 271.537 108.213 269.097 112.733 266.187C117.253 263.277 120.973 260.997 121.033 261.097Z" fill="#263238"/>
<path d="M131.233 272.107C129.319 270.52 127.493 268.831 125.763 267.047C123.938 265.361 122.209 263.575 120.583 261.697C122.497 263.283 124.323 264.972 126.053 266.757C127.877 268.442 129.607 270.229 131.233 272.107Z" fill="#263238"/>
<path d="M133.793 271.887L136.903 271.627C139.106 271.443 141.245 270.788 143.173 269.707C144.113 269.153 145.088 268.662 146.093 268.237C149.933 266.697 154.213 266.977 158.343 266.767C165.108 266.418 171.735 264.718 177.833 261.767C178.191 261.602 178.488 261.329 178.683 260.987C179.323 259.827 178.143 258.797 177.123 258.167C171.893 254.947 166.563 251.677 160.633 250.077C154.703 248.477 147.973 248.747 142.903 252.237C136.963 256.327 134.803 264.717 133.793 271.867" fill="#D9083C"/>
<path d="M178.753 260.627C178.571 260.568 178.396 260.487 178.233 260.387L176.753 259.617C175.483 258.947 173.643 257.957 171.323 256.837C168.619 255.521 165.805 254.447 162.913 253.627C159.371 252.611 155.662 252.311 152.003 252.747C148.34 253.155 144.881 254.641 142.063 257.017C139.861 259.064 138.099 261.537 136.883 264.287C136.037 266.134 135.286 268.023 134.633 269.947L134.083 271.507C134.03 271.694 133.956 271.876 133.863 272.047C133.897 271.857 133.944 271.67 134.003 271.487C134.123 271.077 134.283 270.557 134.483 269.897C135.073 267.931 135.784 266.004 136.613 264.127C137.808 261.317 139.576 258.786 141.803 256.697C144.667 254.251 148.199 252.721 151.943 252.307C155.654 251.867 159.415 252.18 163.003 253.227C165.913 254.081 168.739 255.202 171.443 256.577C173.753 257.727 175.573 258.757 176.823 259.477C177.423 259.817 177.893 260.097 178.263 260.317C178.436 260.404 178.6 260.508 178.753 260.627Z" fill="#263238"/>
<path d="M171.303 264.627C171.233 264.717 167.173 262.097 162.233 258.757C157.293 255.417 153.333 252.647 153.393 252.547C153.453 252.447 157.513 255.087 162.463 258.417C167.413 261.747 171.363 264.537 171.303 264.627Z" fill="#263238"/>
<path d="M167.403 252.176C166.387 252.557 165.317 252.77 164.233 252.806C163.158 252.975 162.062 252.958 160.993 252.757C162.049 252.555 163.119 252.434 164.193 252.396C165.254 252.227 166.328 252.153 167.403 252.176Z" fill="#263238"/>
<path d="M149.193 248.907C148.44 250.747 147.43 252.471 146.193 254.027C146.512 253.083 146.959 252.188 147.523 251.367C147.967 250.476 148.529 249.649 149.193 248.907Z" fill="#263238"/>
<path d="M152.833 267.027C152.131 266.745 151.46 266.389 150.833 265.967C149.663 265.257 148.083 264.217 146.383 262.967C144.683 261.717 143.193 260.567 142.123 259.717C141.52 259.289 140.957 258.807 140.443 258.277C141.1 258.62 141.722 259.026 142.303 259.487L146.623 262.627C148.313 263.857 149.863 264.927 150.993 265.707C151.642 266.095 152.257 266.536 152.833 267.027Z" fill="#263238"/>
<path d="M138.373 285.076C135.373 284.286 131.873 287.166 131.263 290.176C130.653 293.186 131.783 296.246 133.103 299.006C135.921 305.196 140.106 310.667 145.343 315.006C150.628 319.355 157.23 321.786 164.073 321.906C162.823 316.086 164.403 310.016 163.703 304.106C163.086 298.903 160.723 294.062 157 290.375C153.276 286.687 148.412 284.372 143.203 283.806C141.313 283.606 139.123 283.306 138.373 285.056" fill="#D9083C"/>
<path d="M164.073 321.927C163.927 321.874 163.786 321.807 163.653 321.727C163.26 321.516 162.888 321.268 162.543 320.987C161.301 319.905 160.302 318.572 159.613 317.077C159.143 316.157 158.613 315.167 158.103 314.077L156.513 310.557C155.922 309.265 155.254 308.009 154.513 306.797C153.71 305.505 152.807 304.278 151.813 303.127C149.813 300.747 147.613 298.687 145.723 296.717C144.019 294.997 142.466 293.133 141.083 291.147C140.157 289.799 139.395 288.345 138.813 286.817C138.623 286.267 138.493 285.817 138.423 285.547C138.366 285.403 138.336 285.251 138.333 285.097C138.333 285.097 138.533 285.697 138.963 286.757C139.598 288.246 140.389 289.664 141.323 290.987C142.73 292.935 144.295 294.765 146.003 296.457C147.893 298.407 150.083 300.457 152.133 302.867C153.139 304.031 154.048 305.275 154.853 306.587C155.6 307.813 156.268 309.085 156.853 310.397L158.413 313.937C158.913 315.037 159.413 316.037 159.873 316.937C160.524 318.419 161.466 319.756 162.643 320.867C163.513 321.627 164.093 321.887 164.073 321.927Z" fill="#263238"/>
<path d="M148.753 317.097C148.77 316.421 148.864 315.75 149.033 315.097C149.263 313.877 149.643 312.207 150.153 310.377C150.663 308.547 151.213 306.927 151.653 305.767C151.853 305.125 152.125 304.508 152.463 303.927C152.353 304.59 152.176 305.24 151.933 305.867C151.563 307.047 151.063 308.677 150.553 310.497C150.043 312.317 149.613 313.967 149.313 315.167C149.19 315.827 149.002 316.473 148.753 317.097Z" fill="#263238"/>
<path d="M163.513 302.817C162.802 302.724 162.103 302.563 161.423 302.337C160.143 302.007 158.423 301.547 156.423 301.107C154.423 300.667 152.673 300.327 151.423 300.107C150.713 300.019 150.013 299.865 149.333 299.647C150.047 299.63 150.761 299.687 151.463 299.817C152.773 299.997 154.583 300.297 156.553 300.737C158.523 301.177 160.283 301.687 161.553 302.087C162.228 302.266 162.885 302.511 163.513 302.817Z" fill="#263238"/>
<path d="M137.763 306.967C137.799 306.188 137.909 305.414 138.093 304.657C138.353 303.247 138.763 301.307 139.313 299.177C139.863 297.047 140.463 295.177 140.923 293.797C141.134 293.047 141.418 292.32 141.773 291.627C141.641 292.393 141.45 293.149 141.203 293.887C140.813 295.267 140.273 297.167 139.713 299.287C139.153 301.407 138.713 303.287 138.373 304.717C138.236 305.483 138.032 306.236 137.763 306.967Z" fill="#263238"/>
<path d="M156.713 290.377C153.953 290.299 151.2 290.079 148.463 289.717C143.913 289.227 140.233 288.717 140.243 288.637C143.006 288.715 145.763 288.939 148.503 289.307C153.053 289.787 156.723 290.267 156.713 290.377Z" fill="#263238"/>
<path d="M154.003 335.207C154.003 335.327 141.003 335.417 125.003 335.417C109.003 335.417 96.0029 335.327 96.0029 335.207C96.0029 335.087 109.003 335.007 125.003 335.007C141.003 335.007 154.003 335.097 154.003 335.207Z" fill="#455A64"/>
<path d="M144.963 351.937C144.963 352.047 136.213 352.137 125.413 352.137C114.613 352.137 105.853 352.047 105.853 351.937C105.853 351.827 114.613 351.727 125.413 351.727C136.213 351.727 144.963 351.817 144.963 351.937Z" fill="#455A64"/>
<path d="M145.303 354.327C145.303 354.437 136.553 354.537 125.753 354.537C114.953 354.537 106.193 354.437 106.193 354.327C106.193 354.217 114.953 354.117 125.753 354.117C136.553 354.117 145.303 354.217 145.303 354.327Z" fill="#455A64"/>
<path d="M145.303 349.967C145.303 350.077 136.253 350.167 125.083 350.167C113.913 350.167 104.853 350.077 104.853 349.967C104.853 349.857 113.853 349.757 125.083 349.757C136.313 349.757 145.303 349.847 145.303 349.967Z" fill="#455A64"/>
</svg>
