<svg width="248" height="105" viewBox="0 0 248 105" fill="none" xmlns="http://www.w3.org/2000/svg">
<path fill-rule="evenodd" clip-rule="evenodd" d="M86.4608 38.9694L121.265 2.78274L161.291 38.9694H164.272L122.651 1.34126L121.168 0L119.781 1.44148L83.6872 38.9694H86.4608ZM92.9069 38.9694H95.6805L121.588 12.0328L151.383 38.9694H154.364L122.974 10.5913L121.491 9.25009L120.104 10.6916L92.9069 38.9694ZM145.281 38.9694L123.27 19.0707L121.787 17.7295L120.4 19.1709L101.358 38.9694H104.132L121.884 20.5122L142.3 38.9694H145.281ZM103.7 65.9703L124.116 84.4278L141.868 65.9703H144.642L125.6 85.7691L124.213 87.2105L122.73 85.8693L100.719 65.9703H103.7ZM93.7912 65.9703H90.8103L123.053 95.1194L124.536 96.4606L125.923 95.0191L153.862 65.9703H151.088L124.439 93.6779L93.7912 65.9703ZM159.539 65.9703L124.735 102.157L84.7082 65.9703H81.7273L123.349 103.599L124.832 104.94L126.219 103.499L162.313 65.9703H159.539Z" fill="#D9083C"/>
<path d="M10.9547 46.1559H3.62949V42.6266H22.3043V46.1559H14.9791V62.4694H10.9547V46.1559ZM30.508 42.6266H47.4055V46.1559H34.5324V50.1169H45.9328V53.4304H34.5324V58.9528H47.6721V62.4694H30.508V42.6266ZM54.8348 52.4274C54.8348 51.014 55.1014 49.6979 55.6346 48.4792C56.1678 47.252 56.938 46.1898 57.9451 45.2927C58.9607 44.3871 60.1964 43.6761 61.6521 43.1599C63.1163 42.6436 64.771 42.3854 66.616 42.3854C68.2326 42.3854 69.7137 42.5505 71.0594 42.8806C72.4135 43.2022 73.6704 43.6973 74.8299 44.3659L72.9764 47.4128C72.6294 47.1843 72.2273 46.9811 71.7703 46.8034C71.3217 46.6257 70.8393 46.4776 70.323 46.3591C69.8152 46.2321 69.2863 46.1348 68.7361 46.0671C68.1945 45.9994 67.657 45.9655 67.1238 45.9655C65.8374 45.9655 64.6906 46.1263 63.6834 46.4479C62.6762 46.7611 61.8257 47.2054 61.1316 47.7809C60.4461 48.348 59.9214 49.0293 59.5574 49.8249C59.202 50.612 59.0242 51.4795 59.0242 52.4274C59.0242 53.4092 59.2104 54.3106 59.5828 55.1315C59.9552 55.9525 60.4926 56.6634 61.1951 57.2643C61.9061 57.8568 62.7693 58.3223 63.785 58.6608C64.8091 58.9909 65.9643 59.1559 67.2508 59.1559C67.8348 59.1559 68.4145 59.1136 68.99 59.029C69.5656 58.9444 70.1199 58.8301 70.6531 58.6862C71.1948 58.5339 71.7153 58.3561 72.2146 58.153C72.714 57.9414 73.1795 57.7129 73.6111 57.4675L75.4646 60.5143C74.3813 61.2084 73.1287 61.7543 71.7068 62.152C70.285 62.5414 68.7742 62.736 67.1746 62.736C65.1349 62.736 63.3449 62.4737 61.8045 61.9489C60.2641 61.4157 58.9777 60.6878 57.9451 59.7653C56.9126 58.8343 56.1339 57.7425 55.6092 56.4899C55.0929 55.2289 54.8348 53.8747 54.8348 52.4274ZM83.7826 42.6266H87.807L100.172 49.1013V42.6266H104.197V62.4694H100.172V53.3669L87.807 46.9304V62.4694H83.7826V42.6266ZM112.54 52.4909C112.54 50.9929 112.815 49.6218 113.365 48.3776C113.915 47.1335 114.686 46.0671 115.676 45.1784C116.674 44.2813 117.868 43.5873 119.256 43.0964C120.652 42.6055 122.197 42.36 123.89 42.36C125.574 42.36 127.114 42.6055 128.511 43.0964C129.907 43.5873 131.101 44.2813 132.091 45.1784C133.09 46.0671 133.864 47.1335 134.414 48.3776C134.964 49.6218 135.239 50.9929 135.239 52.4909C135.239 53.9974 134.964 55.3812 134.414 56.6423C133.864 57.8949 133.09 58.974 132.091 59.8796C131.101 60.7852 129.907 61.4919 128.511 61.9997C127.114 62.499 125.574 62.7487 123.89 62.7487C122.197 62.7487 120.652 62.499 119.256 61.9997C117.868 61.4919 116.674 60.7852 115.676 59.8796C114.686 58.974 113.915 57.8949 113.365 56.6423C112.815 55.3812 112.54 53.9974 112.54 52.4909ZM116.564 52.4909C116.564 53.515 116.746 54.4375 117.11 55.2585C117.483 56.0794 117.995 56.7819 118.646 57.3659C119.307 57.9414 120.081 58.3858 120.97 58.6989C121.867 59.0121 122.84 59.1686 123.89 59.1686C124.939 59.1686 125.908 59.0121 126.797 58.6989C127.694 58.3858 128.468 57.9414 129.12 57.3659C129.772 56.7819 130.284 56.0794 130.656 55.2585C131.029 54.4375 131.215 53.515 131.215 52.4909C131.215 51.4668 131.029 50.5485 130.656 49.736C130.284 48.9235 129.772 48.238 129.12 47.6794C128.468 47.1123 127.694 46.6807 126.797 46.3845C125.908 46.0882 124.939 45.9401 123.89 45.9401C122.84 45.9401 121.867 46.0882 120.97 46.3845C120.081 46.6807 119.307 47.1123 118.646 47.6794C117.995 48.238 117.483 48.9235 117.11 49.736C116.746 50.5485 116.564 51.4668 116.564 52.4909ZM143.608 42.6266H150.882C153.007 42.6266 154.852 42.8552 156.418 43.3122C157.983 43.7692 159.278 44.4252 160.302 45.28C161.335 46.1263 162.101 47.1589 162.6 48.3776C163.108 49.5879 163.362 50.9505 163.362 52.4655C163.362 53.9043 163.112 55.2373 162.613 56.4645C162.114 57.6833 161.352 58.7412 160.328 59.6384C159.304 60.527 158.009 61.2253 156.443 61.7331C154.877 62.2324 153.032 62.4821 150.908 62.4821L143.608 62.4694V42.6266ZM151.873 58.9909C153.074 58.9909 154.128 58.8386 155.034 58.5339C155.939 58.2207 156.693 57.7806 157.294 57.2136C157.903 56.6465 158.36 55.961 158.665 55.1569C158.969 54.3529 159.122 53.4557 159.122 52.4655C159.122 51.4922 158.969 50.6162 158.665 49.8376C158.36 49.0505 157.903 48.3861 157.294 47.8444C156.693 47.2943 155.939 46.8711 155.034 46.5749C154.128 46.2787 153.074 46.1306 151.873 46.1306H147.632V58.9909H151.873ZM178.066 42.6266H182.331L191.929 62.4694H187.701L186.114 59.1306H174.524L172.987 62.4694H168.747L178.066 42.6266ZM184.528 55.8171L180.237 46.8034L176.06 55.8171H184.528ZM204.893 46.1559H197.568V42.6266H216.243V46.1559H208.918V62.4694H204.893V46.1559ZM231.213 42.6266H235.479L245.077 62.4694H240.849L239.262 59.1306H227.671L226.135 62.4694H221.895L231.213 42.6266ZM237.675 55.8171L233.384 46.8034L229.207 55.8171H237.675Z" fill="white"/>
</svg>
