<svg width="70" height="56" viewBox="0 0 70 56" fill="none" xmlns="http://www.w3.org/2000/svg">
<path d="M25.9786 50.95L2.78269 28.6394L25.9786 2.98113V0.000225067L0 28.7366L25.9786 53.7237V50.95Z" fill="white"/>
<path d="M25.9786 47.5772V44.8035L8.94922 28.4241L25.9786 9.58693V6.60602L6.16653 28.5213L25.9786 47.5772Z" fill="white"/>
<path d="M25.9786 12.6614L11.8192 28.3239L25.9786 41.9429V39.1692L14.6019 28.2267L25.9786 15.6423V12.6614Z" fill="white"/>
<path d="M43.9786 39.3882L55.3556 26.8036L43.9786 15.8609V13.0872L58.1382 26.7064L43.9786 42.3691V39.3882Z" fill="white"/>
<path d="M43.9786 45.994V48.9749L64.3048 26.491L43.9786 6.94073V9.71438L61.5221 26.5882L43.9786 45.994Z" fill="white"/>
<path d="M43.9786 4.08006L67.1748 26.3908L43.9786 52.0494V55.0303L69.9575 26.2936L43.9786 1.3064V4.08006Z" fill="white"/>
</svg>
