<svg width="208" height="98" viewBox="0 0 208 98" fill="none" xmlns="http://www.w3.org/2000/svg">
<circle cx="5" cy="49" r="5" transform="rotate(-90 5 49)" fill="white" fill-opacity="0.8"/>
<circle cx="41" cy="49" r="5" transform="rotate(-90 41 49)" fill="white" fill-opacity="0.8"/>
<circle cx="23" cy="49" r="5" transform="rotate(-90 23 49)" fill="white" fill-opacity="0.8"/>
<circle cx="77" cy="49" r="5" transform="rotate(-90 77 49)" fill="white" fill-opacity="0.8"/>
<circle cx="59" cy="49" r="5" transform="rotate(-90 59 49)" fill="white" fill-opacity="0.8"/>
<circle cx="5" cy="27" r="5" transform="rotate(-90 5 27)" fill="white" fill-opacity="0.8"/>
<circle cx="41" cy="27" r="5" transform="rotate(-90 41 27)" fill="white" fill-opacity="0.8"/>
<circle cx="23" cy="27" r="5" transform="rotate(-90 23 27)" fill="white" fill-opacity="0.8"/>
<circle cx="77" cy="27" r="5" transform="rotate(-90 77 27)" fill="white" fill-opacity="0.8"/>
<circle cx="59" cy="27" r="5" transform="rotate(-90 59 27)" fill="white" fill-opacity="0.8"/>
<circle cx="5" cy="5" r="5" transform="rotate(-90 5 5)" fill="white" fill-opacity="0.8"/>
<circle cx="41" cy="5" r="5" transform="rotate(-90 41 5)" fill="white" fill-opacity="0.8"/>
<circle cx="23" cy="5" r="5" transform="rotate(-90 23 5)" fill="white" fill-opacity="0.8"/>
<circle cx="77" cy="5" r="5" transform="rotate(-90 77 5)" fill="white" fill-opacity="0.8"/>
<circle cx="59" cy="5" r="5" transform="rotate(-90 59 5)" fill="white" fill-opacity="0.8"/>
<circle cx="23" cy="71" r="5" transform="rotate(-90 23 71)" fill="white" fill-opacity="0.8"/>
<circle cx="59" cy="71" r="5" transform="rotate(-90 59 71)" fill="white" fill-opacity="0.8"/>
<circle cx="41" cy="71" r="5" transform="rotate(-90 41 71)" fill="white" fill-opacity="0.8"/>
<circle cx="95" cy="71" r="5" transform="rotate(-90 95 71)" fill="white" fill-opacity="0.8"/>
<circle cx="77" cy="71" r="5" transform="rotate(-90 77 71)" fill="white" fill-opacity="0.8"/>
<circle cx="23" cy="49" r="5" transform="rotate(-90 23 49)" fill="white" fill-opacity="0.8"/>
<circle cx="59" cy="49" r="5" transform="rotate(-90 59 49)" fill="white" fill-opacity="0.8"/>
<circle cx="41" cy="49" r="5" transform="rotate(-90 41 49)" fill="white" fill-opacity="0.8"/>
<circle cx="95" cy="49" r="5" transform="rotate(-90 95 49)" fill="white" fill-opacity="0.8"/>
<circle cx="77" cy="49" r="5" transform="rotate(-90 77 49)" fill="white" fill-opacity="0.8"/>
<circle cx="23" cy="27" r="5" transform="rotate(-90 23 27)" fill="white" fill-opacity="0.8"/>
<circle cx="59" cy="27" r="5" transform="rotate(-90 59 27)" fill="white" fill-opacity="0.8"/>
<circle cx="41" cy="27" r="5" transform="rotate(-90 41 27)" fill="white" fill-opacity="0.8"/>
<circle cx="95" cy="27" r="5" transform="rotate(-90 95 27)" fill="white" fill-opacity="0.8"/>
<circle cx="77" cy="27" r="5" transform="rotate(-90 77 27)" fill="white" fill-opacity="0.8"/>
<circle cx="41" cy="93" r="5" transform="rotate(-90 41 93)" fill="white"/>
<circle cx="77" cy="93" r="5" transform="rotate(-90 77 93)" fill="white"/>
<circle cx="59" cy="93" r="5" transform="rotate(-90 59 93)" fill="white"/>
<circle cx="113" cy="93" r="5" transform="rotate(-90 113 93)" fill="white"/>
<circle cx="95" cy="93" r="5" transform="rotate(-90 95 93)" fill="white"/>
<circle cx="41" cy="71" r="5" transform="rotate(-90 41 71)" fill="white"/>
<circle cx="77" cy="71" r="5" transform="rotate(-90 77 71)" fill="white"/>
<circle cx="59" cy="71" r="5" transform="rotate(-90 59 71)" fill="white"/>
<circle cx="113" cy="71" r="5" transform="rotate(-90 113 71)" fill="white"/>
<circle cx="95" cy="71" r="5" transform="rotate(-90 95 71)" fill="white"/>
<circle cx="41" cy="49" r="5" transform="rotate(-90 41 49)" fill="white"/>
<circle cx="77" cy="49" r="5" transform="rotate(-90 77 49)" fill="white"/>
<circle cx="59" cy="49" r="5" transform="rotate(-90 59 49)" fill="white"/>
<circle cx="113" cy="49" r="5" transform="rotate(-90 113 49)" fill="white"/>
<circle cx="95" cy="49" r="5" transform="rotate(-90 95 49)" fill="white"/>
<circle cx="95" cy="49" r="5" transform="rotate(-90 95 49)" fill="white" fill-opacity="0.8"/>
<circle cx="131" cy="49" r="5" transform="rotate(-90 131 49)" fill="white" fill-opacity="0.8"/>
<circle cx="113" cy="49" r="5" transform="rotate(-90 113 49)" fill="white" fill-opacity="0.8"/>
<circle cx="167" cy="49" r="5" transform="rotate(-90 167 49)" fill="white" fill-opacity="0.8"/>
<circle cx="149" cy="49" r="5" transform="rotate(-90 149 49)" fill="white" fill-opacity="0.8"/>
<circle cx="95" cy="27" r="5" transform="rotate(-90 95 27)" fill="white" fill-opacity="0.8"/>
<circle cx="131" cy="27" r="5" transform="rotate(-90 131 27)" fill="white" fill-opacity="0.8"/>
<circle cx="113" cy="27" r="5" transform="rotate(-90 113 27)" fill="white" fill-opacity="0.8"/>
<circle cx="167" cy="27" r="5" transform="rotate(-90 167 27)" fill="white" fill-opacity="0.8"/>
<circle cx="149" cy="27" r="5" transform="rotate(-90 149 27)" fill="white" fill-opacity="0.8"/>
<circle cx="95" cy="5" r="5" transform="rotate(-90 95 5)" fill="white" fill-opacity="0.8"/>
<circle cx="131" cy="5" r="5" transform="rotate(-90 131 5)" fill="white" fill-opacity="0.8"/>
<circle cx="113" cy="5" r="5" transform="rotate(-90 113 5)" fill="white" fill-opacity="0.8"/>
<circle cx="167" cy="5" r="5" transform="rotate(-90 167 5)" fill="white" fill-opacity="0.8"/>
<circle cx="149" cy="5" r="5" transform="rotate(-90 149 5)" fill="white" fill-opacity="0.8"/>
<circle cx="113" cy="71" r="5" transform="rotate(-90 113 71)" fill="white" fill-opacity="0.8"/>
<circle cx="149" cy="71" r="5" transform="rotate(-90 149 71)" fill="white" fill-opacity="0.8"/>
<circle cx="131" cy="71" r="5" transform="rotate(-90 131 71)" fill="white" fill-opacity="0.8"/>
<circle cx="185" cy="71" r="5" transform="rotate(-90 185 71)" fill="white" fill-opacity="0.8"/>
<circle cx="167" cy="71" r="5" transform="rotate(-90 167 71)" fill="white" fill-opacity="0.8"/>
<circle cx="113" cy="49" r="5" transform="rotate(-90 113 49)" fill="white" fill-opacity="0.8"/>
<circle cx="149" cy="49" r="5" transform="rotate(-90 149 49)" fill="white" fill-opacity="0.8"/>
<circle cx="131" cy="49" r="5" transform="rotate(-90 131 49)" fill="white" fill-opacity="0.8"/>
<circle cx="185" cy="49" r="5" transform="rotate(-90 185 49)" fill="white" fill-opacity="0.8"/>
<circle cx="167" cy="49" r="5" transform="rotate(-90 167 49)" fill="white" fill-opacity="0.8"/>
<circle cx="113" cy="27" r="5" transform="rotate(-90 113 27)" fill="white" fill-opacity="0.8"/>
<circle cx="149" cy="27" r="5" transform="rotate(-90 149 27)" fill="white" fill-opacity="0.8"/>
<circle cx="131" cy="27" r="5" transform="rotate(-90 131 27)" fill="white" fill-opacity="0.8"/>
<circle cx="185" cy="27" r="5" transform="rotate(-90 185 27)" fill="white" fill-opacity="0.8"/>
<circle cx="167" cy="27" r="5" transform="rotate(-90 167 27)" fill="white" fill-opacity="0.8"/>
<circle cx="131" cy="93" r="5" transform="rotate(-90 131 93)" fill="white"/>
<circle cx="167" cy="93" r="5" transform="rotate(-90 167 93)" fill="white"/>
<circle cx="149" cy="93" r="5" transform="rotate(-90 149 93)" fill="white"/>
<circle cx="203" cy="93" r="5" transform="rotate(-90 203 93)" fill="white"/>
<circle cx="185" cy="93" r="5" transform="rotate(-90 185 93)" fill="white"/>
<circle cx="131" cy="71" r="5" transform="rotate(-90 131 71)" fill="white"/>
<circle cx="167" cy="71" r="5" transform="rotate(-90 167 71)" fill="white"/>
<circle cx="149" cy="71" r="5" transform="rotate(-90 149 71)" fill="white"/>
<circle cx="203" cy="71" r="5" transform="rotate(-90 203 71)" fill="white"/>
<circle cx="185" cy="71" r="5" transform="rotate(-90 185 71)" fill="white"/>
<circle cx="131" cy="49" r="5" transform="rotate(-90 131 49)" fill="white"/>
<circle cx="167" cy="49" r="5" transform="rotate(-90 167 49)" fill="white"/>
<circle cx="149" cy="49" r="5" transform="rotate(-90 149 49)" fill="white"/>
<circle cx="203" cy="49" r="5" transform="rotate(-90 203 49)" fill="white"/>
<circle cx="185" cy="49" r="5" transform="rotate(-90 185 49)" fill="white"/>
</svg>
