<svg width="70" height="70" viewBox="0 0 70 70" fill="none" xmlns="http://www.w3.org/2000/svg">
<path fill-rule="evenodd" clip-rule="evenodd" d="M35 70C54.33 70 70 54.33 70 35C70 15.67 54.33 0 35 0C15.67 0 0 15.67 0 35C0 42.0517 2.08543 48.6163 5.67319 54.1108L1.82462 68.4739L16.3047 64.5939C21.7133 68.0179 28.1252 70 35 70Z" fill="#25D366"/>
<path d="M16.9302 65.005C22.3386 68.2595 28.5224 69.9749 34.8761 69.9749C54.1294 69.9749 70 54.264 70 34.9872C70 15.7328 54.1518 0 34.8761 0C15.6591 0 0.0251007 15.6954 0.0251007 34.9872C0.0251007 41.4258 1.74103 47.6566 4.99504 53.0693L0 70L16.9302 65.005ZM4.1256 34.9872C4.1256 17.9561 17.9203 4.09996 34.8761 4.09996C51.9825 4.09996 65.9 17.9561 65.9 34.9872C65.9 52.0188 51.9825 65.8744 34.8761 65.8744C28.9897 65.8744 23.2694 64.2071 18.3353 61.0519L17.547 60.5482L6.06422 63.9363L9.45175 52.453L8.94814 51.6653C5.79292 46.73 4.1256 40.9633 4.1256 34.9872Z" fill="white"/>
<path d="M17.0392 28.5406C17.7164 32.0969 19.7266 38.9371 25.5793 44.7898C31.432 50.6425 38.2723 52.6533 41.8291 53.3304C45.9018 54.1059 51.8784 54.2229 54.7992 51.3021L56.4275 49.6738C57.2495 48.8518 57.7023 47.7586 57.7023 46.596C57.7023 45.4333 57.2495 44.3407 56.4275 43.5187L49.9158 37.007C49.0933 36.1845 48.0007 35.7322 46.838 35.7322C45.6754 35.7322 44.5827 36.1845 43.7602 37.007L42.1324 38.6348C41.138 39.6292 39.2608 39.6335 38.2589 38.6471L31.7637 31.8795C31.7541 31.8693 31.7445 31.8592 31.7343 31.8496C30.7383 30.8536 30.7383 29.2327 31.7343 28.2367L33.3621 26.6089C35.0636 24.9074 35.0636 22.1543 33.3621 20.4533L26.8504 13.9416C25.1537 12.2449 22.3926 12.2449 20.6954 13.9416L19.0675 15.5699V15.5694C16.7364 17.9011 15.9593 22.871 17.0392 28.5406ZM21.9669 18.4693C23.6759 16.7993 23.5846 16.7673 23.7731 16.7673C23.8377 16.7673 23.9024 16.7918 23.9515 16.841C30.8131 23.7394 30.5375 23.334 30.5375 23.5316C30.5375 23.6005 30.5124 23.6609 30.4638 23.71L28.8355 25.3378C26.2426 27.9307 26.2325 32.1278 28.8189 34.7324L35.3179 41.5043C35.328 41.5139 35.3376 41.524 35.3478 41.5342C37.9401 44.1265 42.431 44.135 45.0318 41.5342L46.6596 39.9064C46.7579 39.8081 46.9181 39.8081 47.0164 39.9064C53.878 46.8043 53.6024 46.3989 53.6024 46.5965C53.6024 46.6659 53.5773 46.7258 53.5287 46.7749L51.9003 48.4027C50.7847 49.5183 47.2311 50.1859 42.596 49.3031C39.5027 48.7135 33.5549 46.9672 28.4787 41.8909C23.4025 36.8147 21.6561 30.8669 21.0671 27.7737C20.1837 23.1386 20.8513 19.5844 21.9669 18.4693Z" fill="white"/>
</svg>
