<svg width="80" height="100" viewBox="0 0 80 100" fill="none" xmlns="http://www.w3.org/2000/svg">
<path d="M35.4078 64.6549L0 77.298H80L46.7565 64.6549H35.4078Z" fill="#D9083C"/>
<path d="M45.346 76.436C45.2143 77.1707 45.125 77.9133 45.0785 78.6596C45.0048 80.6995 45.462 82.7214 46.3998 84.5028C46.951 85.6491 47.6644 86.8642 48.2237 88.2949C48.8369 89.8401 49.0006 91.5451 48.6939 93.1901C48.3527 95.0081 47.4787 96.6645 46.1972 97.9216C44.7956 99.2625 42.9758 100.003 41.0903 99.9986C39.2104 100.034 37.378 99.3694 35.9104 98.1198C34.6592 96.9713 33.768 95.4436 33.3566 93.7415C32.9451 92.0393 33.0329 90.2441 33.6083 88.5965C34.1619 87.2905 34.8791 86.07 35.7402 84.9682C36.4245 84.0671 37.0067 83.0836 37.4749 82.038C37.8101 81.2445 37.9999 80.3904 38.0342 79.5214C38.0376 78.7758 37.8736 78.0402 37.556 77.3754C37.6775 77.5246 37.7761 77.6933 37.8478 77.8753C38.0672 78.3934 38.1857 78.9533 38.1964 79.5214C38.1899 80.4099 38.0192 81.2885 37.6938 82.1069C37.2398 83.1864 36.6626 84.2023 35.9753 85.132C35.151 86.223 34.4667 87.4258 33.9406 88.7086C33.3968 90.2844 33.3196 91.9995 33.7196 93.6234C34.1196 95.2473 34.9774 96.7021 36.1779 97.7923C37.5703 98.9755 39.3081 99.6036 41.0903 99.5677C42.8827 99.5826 44.6162 98.8883 45.954 97.6199C47.1877 96.428 48.0383 94.8545 48.3858 93.1212C48.6884 91.5551 48.5444 89.9286 47.9724 88.45C47.4455 87.0538 46.7484 85.8645 46.2053 84.6666C45.2664 82.8203 44.8444 80.7269 44.9894 78.6337C45.0261 78.0724 45.1102 77.5157 45.2406 76.9704C45.2551 76.7883 45.2905 76.6089 45.346 76.436Z" fill="#263238"/>
<path d="M42.4197 77.2377C42.3769 77.7705 42.3038 78.3 42.2008 78.8235C41.9982 80.2518 41.8629 81.6899 41.7955 83.1326C41.7009 85.2684 41.7904 87.409 42.063 89.5274C42.1071 89.7931 42.2193 90.0406 42.3873 90.2428C42.4624 90.3347 42.5586 90.4044 42.6666 90.4452C42.7745 90.486 42.8905 90.4964 43.0033 90.4755C43.4411 90.3807 43.6762 89.6739 43.587 89.1138C43.495 88.4868 43.1974 87.9147 42.7469 87.4985C42.2963 87.0823 41.7219 86.849 41.1251 86.8397C40.5283 86.8304 39.9477 87.0458 39.4859 87.4477C39.0241 87.8497 38.7109 88.4124 38.6017 89.0362C38.5488 89.3086 38.5861 89.5921 38.7072 89.8387C38.8283 90.0853 39.0259 90.2798 39.2664 90.3893C39.5063 90.4406 39.7556 90.3972 39.9675 90.2671C40.1794 90.137 40.3394 89.9291 40.4175 89.6826C40.5979 89.1283 40.6884 88.5454 40.685 87.9589C40.7255 87.3901 40.7498 86.8385 40.7579 86.2956C40.7652 85.3 40.7246 84.3047 40.6364 83.3136C40.5128 81.8609 40.2852 80.4203 39.9554 79.0044C39.7285 78.0133 39.5744 77.4617 39.6069 77.4531C39.6714 77.573 39.7231 77.7002 39.7609 77.8323C39.8581 78.0823 39.9797 78.4615 40.1175 78.9613C40.5034 80.3704 40.7746 81.8121 40.9282 83.2705C41.0342 84.275 41.091 85.2848 41.0984 86.2956C41.0984 86.8356 41.0822 87.3958 41.0498 87.9761C41.0506 88.5948 40.9547 89.2093 40.7661 89.7946C40.6414 90.1194 40.4264 90.396 40.15 90.5875C40.0026 90.6954 39.8336 90.7656 39.6564 90.7925C39.4792 90.8194 39.2985 90.8024 39.1286 90.7426C38.7985 90.6034 38.5238 90.3473 38.3509 90.0174C38.1781 89.6876 38.1178 89.3044 38.1802 88.9328C38.2976 88.1985 38.6576 87.5328 39.1953 87.0555C39.7331 86.5782 40.4134 86.3205 41.1139 86.3288C41.8144 86.3371 42.4892 86.6109 43.0168 87.1008C43.5444 87.5908 43.8903 88.2648 43.9923 89.0017C44.0397 89.3667 43.9949 89.7385 43.8626 90.079C43.7978 90.2683 43.6899 90.4374 43.5484 90.5713C43.4069 90.7052 43.2363 90.7996 43.052 90.846C42.8718 90.8807 42.6862 90.8657 42.5131 90.8023C42.3399 90.7389 42.185 90.6293 42.063 90.4841C41.8452 90.2239 41.6993 89.9048 41.6415 89.5619C41.3768 87.4078 41.3143 85.231 41.4551 83.0637C41.5479 81.6163 41.7294 80.1768 41.9982 78.7545C42.1036 78.246 42.1846 77.8927 42.2576 77.5996C42.2941 77.471 42.3487 77.3489 42.4197 77.2377Z" fill="#263238"/>
<path d="M41.0903 0C41.1213 0.216712 41.1349 0.435836 41.1308 0.654995C41.1308 1.12039 41.1309 1.74091 41.1714 2.51656C41.1714 4.1799 41.1714 6.50685 41.2362 9.35953C41.2362 15.1855 41.2768 23.1489 41.3011 31.9482C41.3254 40.7476 41.2524 48.7109 41.2362 54.5369C41.2362 57.3896 41.1876 59.7079 41.1714 61.4316C41.1714 62.1986 41.1714 62.8191 41.1308 63.2845C41.1349 63.5037 41.1213 63.7228 41.0903 63.9395C41.0541 63.7235 41.0404 63.5038 41.0498 63.2845C41.0498 62.8191 41.0498 62.1986 41.0093 61.4316C41.0093 59.7596 41.0093 57.4327 40.9363 54.5369C40.9363 48.7109 40.9363 40.7476 40.8796 31.9482C40.8228 23.1489 40.9201 15.1855 40.9363 9.35953C40.9363 6.50685 40.993 4.18852 41.0093 2.51656C41.0093 1.74091 41.0093 1.12039 41.0498 0.654995C41.0404 0.435741 41.0541 0.216063 41.0903 0V0Z" fill="#263238"/>
</svg>
