<?xml version="1.0" encoding="utf-8"?>
<!-- Generator: Adobe Illustrator 17.0.0, SVG Export Plug-In . SVG Version: 6.00 Build 0)  -->
<!DOCTYPE svg PUBLIC "-//W3C//DTD SVG 1.1//EN" "http://www.w3.org/Graphics/SVG/1.1/DTD/svg11.dtd">
<svg width="292" height="29" viewBox="0 0 292 29" fill="none" xmlns="http://www.w3.org/2000/svg">
<path d="M10.9219 5.41211H0.779297V0.525391H26.6367V5.41211H16.4941V28H10.9219V5.41211ZM32.5957 0.525391H55.9922V5.41211H38.168V10.8965H53.9531V15.4844H38.168V23.1309H56.3613V28H32.5957V0.525391ZM60.8789 14.0957C60.8789 12.1387 61.248 10.3164 61.9863 8.62891C62.7246 6.92969 63.791 5.45898 65.1855 4.2168C66.5918 2.96289 68.3027 1.97852 70.3184 1.26367C72.3457 0.548828 74.6367 0.191406 77.1914 0.191406C79.4297 0.191406 81.4805 0.419922 83.3438 0.876953C85.2188 1.32227 86.959 2.00781 88.5645 2.93359L85.998 7.15234C85.5176 6.83594 84.9609 6.55469 84.3281 6.30859C83.707 6.0625 83.0391 5.85742 82.3242 5.69336C81.6211 5.51758 80.8887 5.38281 80.127 5.28906C79.377 5.19531 78.6328 5.14844 77.8945 5.14844C76.1133 5.14844 74.5254 5.37109 73.1309 5.81641C71.7363 6.25 70.5586 6.86523 69.5977 7.66211C68.6484 8.44727 67.9219 9.39062 67.418 10.4922C66.9258 11.582 66.6797 12.7832 66.6797 14.0957C66.6797 15.4551 66.9375 16.7031 67.4531 17.8398C67.9688 18.9766 68.7129 19.9609 69.6855 20.793C70.6699 21.6133 71.8652 22.2578 73.2715 22.7266C74.6895 23.1836 76.2891 23.4121 78.0703 23.4121C78.8789 23.4121 79.6816 23.3535 80.4785 23.2363C81.2754 23.1191 82.043 22.9609 82.7812 22.7617C83.5312 22.5508 84.252 22.3047 84.9434 22.0234C85.6348 21.7305 86.2793 21.4141 86.877 21.0742L89.4434 25.293C87.9434 26.2539 86.209 27.0098 84.2402 27.5605C82.2715 28.0996 80.1797 28.3691 77.9648 28.3691C75.1406 28.3691 72.6621 28.0059 70.5293 27.2793C68.3965 26.541 66.6152 25.5332 65.1855 24.2559C63.7559 22.9668 62.6777 21.4551 61.9512 19.7207C61.2363 17.9746 60.8789 16.0996 60.8789 14.0957ZM95.5605 0.525391H101.133L118.254 9.49023V0.525391H123.826V28H118.254V15.3965L101.133 6.48438V28H95.5605V0.525391ZM129.979 14.1836C129.979 12.1094 130.359 10.2109 131.121 8.48828C131.883 6.76562 132.949 5.28906 134.32 4.05859C135.703 2.81641 137.355 1.85547 139.277 1.17578C141.211 0.496094 143.35 0.15625 145.693 0.15625C148.025 0.15625 150.158 0.496094 152.092 1.17578C154.025 1.85547 155.678 2.81641 157.049 4.05859C158.432 5.28906 159.504 6.76562 160.266 8.48828C161.027 10.2109 161.408 12.1094 161.408 14.1836C161.408 16.2695 161.027 18.1855 160.266 19.9316C159.504 21.666 158.432 23.1602 157.049 24.4141C155.678 25.668 154.025 26.6465 152.092 27.3496C150.158 28.041 148.025 28.3867 145.693 28.3867C143.35 28.3867 141.211 28.041 139.277 27.3496C137.355 26.6465 135.703 25.668 134.32 24.4141C132.949 23.1602 131.883 21.666 131.121 19.9316C130.359 18.1855 129.979 16.2695 129.979 14.1836ZM135.551 14.1836C135.551 15.6016 135.803 16.8789 136.307 18.0156C136.822 19.1523 137.531 20.125 138.434 20.9336C139.348 21.7305 140.42 22.3457 141.65 22.7793C142.893 23.2129 144.24 23.4297 145.693 23.4297C147.146 23.4297 148.488 23.2129 149.719 22.7793C150.961 22.3457 152.033 21.7305 152.936 20.9336C153.838 20.125 154.547 19.1523 155.062 18.0156C155.578 16.8789 155.836 15.6016 155.836 14.1836C155.836 12.7656 155.578 11.4941 155.062 10.3691C154.547 9.24414 153.838 8.29492 152.936 7.52148C152.033 6.73633 150.961 6.13867 149.719 5.72852C148.488 5.31836 147.146 5.11328 145.693 5.11328C144.24 5.11328 142.893 5.31836 141.65 5.72852C140.42 6.13867 139.348 6.73633 138.434 7.52148C137.531 8.29492 136.822 9.24414 136.307 10.3691C135.803 11.4941 135.551 12.7656 135.551 14.1836ZM167.596 0.525391H177.668C180.609 0.525391 183.164 0.841797 185.332 1.47461C187.5 2.10742 189.293 3.01563 190.711 4.19922C192.141 5.37109 193.201 6.80078 193.893 8.48828C194.596 10.1641 194.947 12.0508 194.947 14.1484C194.947 16.1406 194.602 17.9863 193.91 19.6855C193.219 21.373 192.164 22.8379 190.746 24.0801C189.328 25.3105 187.535 26.2773 185.367 26.9805C183.199 27.6719 180.645 28.0176 177.703 28.0176L167.596 28V0.525391ZM179.039 23.1836C180.703 23.1836 182.162 22.9727 183.416 22.5508C184.67 22.1172 185.713 21.5078 186.545 20.7227C187.389 19.9375 188.021 18.9883 188.443 17.875C188.865 16.7617 189.076 15.5195 189.076 14.1484C189.076 12.8008 188.865 11.5879 188.443 10.5098C188.021 9.41992 187.389 8.5 186.545 7.75C185.713 6.98828 184.67 6.40234 183.416 5.99219C182.162 5.58203 180.703 5.37695 179.039 5.37695H173.168V23.1836H179.039ZM209.906 0.525391H215.812L229.102 28H223.248L221.051 23.377H205.002L202.875 28H197.004L209.906 0.525391ZM218.854 18.7891L212.912 6.30859L207.129 18.7891H218.854ZM241.652 5.41211H231.51V0.525391H257.367V5.41211H247.225V28H241.652V5.41211ZM272.695 0.525391H278.602L291.891 28H286.037L283.84 23.377H267.791L265.664 28H259.793L272.695 0.525391ZM281.643 18.7891L275.701 6.30859L269.918 18.7891H281.643Z" fill="white"/>
</svg>
