<svg width="82" height="77" viewBox="0 0 82 77" fill="none" xmlns="http://www.w3.org/2000/svg">
<path d="M76.6833 29.3799C76.8931 27.793 76.9016 25.8766 75.5808 24.9547C75.0728 24.6604 74.508 24.4775 73.9239 24.4182C73.3399 24.3588 72.7498 24.4244 72.193 24.6105C67.6023 25.7756 61.9386 28.4486 55.2797 34.2787C54.5049 28.5083 53.2389 23.0463 49.5636 17.2472C48.5109 15.5816 44.9162 13.3204 43.2642 13.1382C41.7502 13.1216 40.2606 13.5199 38.957 14.29C37.6534 15.06 36.5856 16.1723 35.8694 17.5062C31.9405 25.9492 32.8392 30.799 32.6684 35.6265C24.0382 28.9041 19.8264 26.8357 14.8967 25.0489C13.2016 24.4395 12.1072 24.6121 10.7316 26.6556C10.1576 27.8376 9.75787 29.0966 9.54499 30.3933C8.82215 36.9607 9.82418 37.7107 10.8261 43.8533C15.8877 55.7777 25.0518 63.2874 38.6428 67.0744C41.983 68.0403 45.5132 68.1458 48.9051 67.3811C55.3727 65.7915 61.2204 62.3118 65.7026 57.3857C71.6226 49.8874 75.4342 38.8517 76.6833 29.3799Z" fill="white"/>
<path d="M74.0211 28.1746C73.8804 28.2853 73.7243 28.3748 73.5578 28.4404L72.2185 29.0857C71.6252 29.3529 70.9167 29.6383 70.0868 30.1442C69.2568 30.6501 68.3195 31.048 67.3109 31.6758C66.8196 31.9843 66.2872 32.3408 65.7551 32.6435C65.223 32.9462 64.6885 33.3882 64.1319 33.7781C62.9816 34.5429 61.8642 35.4935 60.6668 36.4549C55.5642 40.8058 51.3513 46.1024 48.2602 52.0531C47.5851 53.4305 46.9046 54.741 46.4192 56.0225C46.1645 56.653 45.9135 57.2742 45.67 57.8769C45.4265 58.4795 45.2666 59.0621 45.0772 59.6111C44.6389 60.6959 44.4347 61.7351 44.1698 62.6311C43.9049 63.5271 43.7425 64.3027 43.614 64.9411C43.4855 65.5794 43.3725 66.0191 43.2876 66.4162C43.2609 66.5925 43.2097 66.7643 43.1354 66.9264C43.1339 66.7487 43.1513 66.5713 43.1874 66.3973C43.2501 66.002 43.3223 65.5027 43.4136 64.9033C43.5288 64.1146 43.6896 63.3333 43.8952 62.5633C44.1186 61.5288 44.3949 60.5065 44.7229 59.5003C44.9439 58.9533 45.102 58.3485 45.2916 57.7456C45.4813 57.1427 45.7824 56.531 46.0408 55.8912C46.5578 54.6117 47.1957 53.2732 47.869 51.8735C49.4265 48.8766 51.2617 46.0324 53.3505 43.3783C55.4798 40.7563 57.8473 38.3369 60.4227 36.1514C61.6461 35.1789 62.7914 34.2395 63.9472 33.4877C64.5261 33.0961 65.0641 32.6987 65.6075 32.3682L67.1966 31.4248C68.211 30.756 69.1668 30.3657 69.9613 29.9209C70.672 29.5541 71.4021 29.2263 72.1485 28.9387L73.5337 28.4199C73.688 28.3229 73.8512 28.2408 74.0211 28.1746Z" fill="white"/>
<g opacity="0.3">
<path opacity="0.3" d="M61.9924 34.9089C62.4244 34.5873 62.9145 34.0951 62.6877 33.6152C62.461 33.1353 61.8018 33.1386 61.3576 33.2503C58.9515 33.738 56.6851 34.7577 54.7241 36.2347C52.7632 37.7117 51.1575 39.6086 50.0246 41.7865C49.4267 36.8252 47.6752 32.0729 44.9104 27.9102C44.8241 27.7396 44.7031 27.5889 44.5552 27.4678C44.4072 27.3467 44.2355 27.2579 44.0512 27.2072C43.4888 27.131 43.0892 27.7461 42.8664 28.2708C40.9913 32.7291 40.5069 37.6499 41.4768 42.3883C38.8111 38.8953 33.9975 36.875 29.7389 35.9633C29.9577 36.3048 30.2131 36.6214 30.5007 36.9074C36.6731 44.9881 41.8721 55.3178 43.3249 65.3096C45.3423 59.729 47.144 53.1876 50.2663 48.1289C53.2923 43.0119 57.2731 38.5239 61.9924 34.9089Z" fill="black"/>
</g>
<path d="M29.5025 18.396C29.6336 18.4987 29.7478 18.6213 29.8411 18.7593L30.7323 19.8635C31.1206 20.344 31.5902 20.9436 32.0742 21.6676C32.5582 22.3916 33.1738 23.1904 33.7387 24.1413C34.3037 25.0921 35.002 26.14 35.5995 27.3306C36.197 28.5211 36.8484 29.7118 37.4957 31.0195C40.2135 36.7462 42.0601 42.8471 42.9741 49.1197C43.166 50.567 43.3655 51.9418 43.4612 53.2532C43.5569 54.5645 43.6252 55.7569 43.6418 56.8637C43.6584 57.9705 43.6438 58.9677 43.624 59.8441C43.6043 60.7205 43.5664 61.4817 43.503 62.0925C43.4396 62.7032 43.4065 63.132 43.3737 63.507C43.3728 63.6722 43.3466 63.8361 43.2958 63.9933C43.2958 63.9933 43.2686 63.8205 43.2697 63.4974L43.3043 62.0769C43.3362 61.4642 43.3573 60.7178 43.3362 59.8357C43.3152 58.9535 43.3538 57.9769 43.2796 56.8792C43.2055 55.7815 43.1391 54.5575 43.0339 53.2963C42.9287 52.035 42.7275 50.6379 42.5319 49.1999C42.0353 46.0913 41.3388 43.0179 40.4468 39.9988C39.5184 36.9915 38.3991 34.0464 37.0959 31.1815C36.4691 29.8498 35.8773 28.6184 35.2405 27.4983C34.6038 26.3782 34.0392 25.3196 33.4705 24.378C32.9019 23.4364 32.3513 22.61 31.8748 21.8674C31.3983 21.1249 30.9733 20.5217 30.6148 20.021L29.7999 18.8613C29.6797 18.7207 29.5796 18.5641 29.5025 18.396Z" fill="white"/>
<path d="M54.6313 13.5134C54.5868 13.6887 54.5188 13.8571 54.429 14.0141C54.2792 14.385 54.0881 14.8578 53.7947 15.3972C53.5013 15.9366 53.1699 16.7302 52.7992 17.5943C52.4285 18.4583 51.9665 19.4149 51.5393 20.5258C50.6552 22.7139 49.5988 25.3286 48.6433 28.3075C47.6878 31.2865 46.7442 34.5831 45.9391 38.0974C45.134 41.6117 44.593 45.0062 44.1811 48.1077C43.7692 51.2093 43.5627 54.0163 43.4598 56.3799C43.374 57.5532 43.374 58.6209 43.3373 59.566C43.3006 60.5111 43.3016 61.3096 43.3011 61.9781L43.2884 63.5045C43.2942 63.6831 43.2799 63.8618 43.2457 64.0373C43.2011 63.8631 43.1792 63.6839 43.1807 63.5041L43.108 61.9755C43.0731 61.3143 43.0444 60.5046 43.0124 59.5426C42.9805 58.5806 42.9953 57.5296 43.0607 56.3265C43.1228 53.9572 43.3238 51.1372 43.68 48.0132C44.0363 44.8891 44.6126 41.4873 45.4141 37.9284C46.2157 34.3695 47.1741 31.0898 48.1649 28.1035C49.1557 25.1172 50.2271 22.4655 51.1779 20.3258C51.6237 19.2225 52.1079 18.2641 52.5157 17.415C52.9235 16.5659 53.2825 15.8374 53.5947 15.2517C53.9068 14.666 54.1217 14.2674 54.3179 13.9153C54.4087 13.7712 54.5136 13.6366 54.6313 13.5134Z" fill="white"/>
<path d="M43.3415 66.3627C43.3415 66.3627 43.3066 66.2623 43.2776 66.0672L43.1265 65.1865C42.9843 64.4172 42.8918 63.2581 42.5384 61.8103C41.7446 57.682 40.4385 53.6688 38.6504 49.864C38.0492 48.6828 37.4854 47.4088 36.7227 46.1731C36.3498 45.5479 36.0104 44.8931 35.5966 44.2621L34.3089 42.3506C32.4024 39.63 30.2336 37.1029 27.8339 34.8055C25.1508 32.3045 22.2134 30.0911 19.0696 28.2015C18.2337 27.7344 17.4128 27.2302 16.5509 26.7741L13.9222 25.4855C13.5314 25.2538 13.0808 25.1431 12.6272 25.1672C12.1975 25.2373 11.8094 25.465 11.5386 25.8059C10.97 26.5971 10.5729 27.4983 10.3725 28.4518C10.1253 29.4212 9.9536 30.4084 9.85907 31.4044C9.71626 32.4253 9.6981 33.3778 9.65568 34.3637C9.638 36.2983 9.79978 38.2303 10.1389 40.135C10.4865 41.9688 10.9935 43.7687 11.6541 45.5143C12.3098 47.1824 13.1017 48.7938 14.0218 50.332C15.7454 53.1684 17.9113 55.7111 20.4375 57.8638C21.6672 58.8244 22.8132 59.8052 23.9839 60.6448C25.1237 61.4438 26.3057 62.1806 27.5249 62.8521C31.1932 64.8976 35.1414 66.3947 39.2437 67.2956C40.7003 67.6144 41.8454 67.7967 42.6175 67.9145L43.5028 68.0457C43.6053 68.0498 43.7066 68.0689 43.8035 68.1024C43.7002 68.1135 43.596 68.1113 43.4934 68.0958L42.6079 68.0184C41.8245 67.9284 40.6737 67.787 39.2059 67.496C35.0562 66.6598 31.056 65.2036 27.34 63.1764C26.1668 62.5298 24.9604 61.8051 23.7599 60.9858C22.5594 60.1664 21.4061 59.1504 20.1578 58.1823C17.5762 56.0223 15.3635 53.4563 13.6068 50.585C12.6681 49.0246 11.8607 47.3889 11.193 45.6947C10.5128 43.9212 9.99276 42.0904 9.63911 40.2242C9.29363 38.2875 9.1233 36.3236 9.1302 34.3563C9.1801 33.3519 9.20772 32.3492 9.34304 31.3469C9.43901 30.3267 9.61324 29.3154 9.8642 28.3219C10.0811 27.2916 10.5177 26.3202 11.1442 25.474C11.4943 25.0255 12.0006 24.7256 12.5621 24.634C13.1097 24.592 13.6573 24.7156 14.1338 24.9886L16.8329 26.3164C17.7189 26.793 18.5249 27.2804 19.3663 27.7606C22.5314 29.6884 25.4844 31.9443 28.1766 34.4911C30.589 36.8211 32.7653 39.3839 34.6736 42.142C35.1077 42.8027 35.54 43.4411 35.9501 44.0814C36.3601 44.7216 36.7088 45.3801 37.078 46.0146C37.8369 47.2596 38.3932 48.5521 38.987 49.7519C40.7601 53.5892 42.0234 57.6421 42.7445 61.8074C42.9622 62.9418 43.1224 64.0864 43.2247 65.237C43.2717 65.6011 43.2949 65.8909 43.3182 66.1268C43.3311 66.2048 43.3388 66.2836 43.3415 66.3627Z" fill="white"/>
<path d="M67.9486 43.2042C67.7664 43.6311 67.5436 44.0395 67.2833 44.4238C66.8239 45.1873 66.1108 46.2581 65.1816 47.5437C62.709 50.8744 59.9626 53.993 56.9712 56.8669C53.9862 59.7421 50.8462 62.452 47.5654 64.9845C46.3104 65.955 45.2772 66.724 44.5511 67.2395C44.1926 67.529 43.8053 67.7809 43.3954 67.9913C43.7102 67.6515 44.0584 67.3441 44.4347 67.0739L47.3361 64.6977C49.7868 62.6895 53.1318 59.8563 56.6048 56.4924C59.5748 53.6342 62.3406 50.571 64.8815 47.3254C65.8534 46.0679 66.6145 45.038 67.1129 44.3118C67.3541 43.9158 67.6341 43.5448 67.9486 43.2042Z" fill="white"/>
<path d="M42.5488 68.4583C42.0784 68.2403 41.626 67.9854 41.1958 67.696C40.3211 67.1915 39.1299 66.3759 37.6702 65.344C33.9048 62.5987 30.4864 59.4068 27.4898 55.8382C24.5011 52.2505 21.9467 48.3223 19.8797 44.1352C19.0793 42.5392 18.4934 41.2131 18.1233 40.2871C17.9151 39.8226 17.749 39.3404 17.627 38.8462C17.906 39.2809 18.1467 39.739 18.3464 40.2154C18.7685 41.1194 19.4103 42.414 20.2442 43.9805C22.3695 48.0724 24.9225 51.9275 27.8606 55.4811C30.8451 59.0213 34.2105 62.2221 37.896 65.0254C39.3184 66.0962 40.4816 66.9544 41.3228 67.4884C41.7614 67.7719 42.1719 68.0967 42.5488 68.4583Z" fill="white"/>
</svg>
