<svg width="500" height="19" viewBox="0 0 500 19" fill="none" xmlns="http://www.w3.org/2000/svg">
<path fill-rule="evenodd" clip-rule="evenodd" d="M221.211 0C221.211 0 221.13 0.120009 220.969 0.290009L220.897 0.366912C220.738 0.536195 220.515 0.773297 220.233 1.04001C219.318 1.91227 218.372 2.71008 217.399 3.42999C215.956 4.51521 214.458 5.42808 212.918 6.16C211.029 7.08583 209.058 7.58796 207.071 7.64999C203.457 7.52163 199.908 6.18195 196.688 3.73001C195.713 3.00867 194.773 2.18668 193.875 1.27002C193.594 0.990327 193.385 0.741185 193.229 0.555993L193.165 0.480011C193.078 0.397317 192.999 0.296264 192.93 0.179993C193.282 0.455365 193.622 0.76262 193.949 1.10001C194.87 1.9414 195.82 2.70914 196.795 3.39999C200.003 5.72211 203.507 6.99386 207.071 7.13C209.024 7.06818 210.962 6.58658 212.824 5.70001C214.354 4.99785 215.848 4.12884 217.292 3.10001C218.525 2.23001 219.503 1.44002 220.166 0.860016C220.501 0.538601 220.85 0.251267 221.211 0ZM227.386 0.810181C227.505 0.618301 227.608 0.406938 227.694 0.180176C227.56 0.383058 227.439 0.604002 227.333 0.840179C227.244 0.976094 227.147 1.1444 227.037 1.33616L227.036 1.33766L227.036 1.3379C226.847 1.66785 226.617 2.06706 226.321 2.4902C225.046 4.46025 223.646 6.24182 222.142 7.81018C219.924 10.1623 217.524 12.1063 214.994 13.6002C213.509 14.4998 211.976 15.2187 210.413 15.7502C208.741 16.3616 207.03 16.6969 205.309 16.7502C201.978 16.7044 198.685 15.6852 195.616 13.7502C193.096 12.2262 190.709 10.2482 188.509 7.8602C187.019 6.26094 185.629 4.46361 184.357 2.4902C184.043 2.05529 183.801 1.62932 183.605 1.28419C183.508 1.11352 183.423 0.962612 183.345 0.840179C183.232 0.63958 183.109 0.452355 182.977 0.280182C183.069 0.500881 183.172 0.711423 183.285 0.910187C183.349 1.02339 183.419 1.15598 183.498 1.30427L183.498 1.30458L183.498 1.30476L183.499 1.30546C183.691 1.66786 183.933 2.12391 184.256 2.62018C185.499 4.66226 186.874 6.51471 188.362 8.15018C190.563 10.5861 192.96 12.6017 195.496 14.1502C198.604 16.1104 201.942 17.1301 205.315 17.1502C207.059 17.103 208.793 16.7677 210.487 16.1502C212.068 15.6097 213.616 14.8739 215.115 13.9502C217.659 12.4178 220.066 10.4228 222.282 8.01019C223.786 6.40764 225.172 4.57061 226.415 2.53018C226.758 1.98215 227.083 1.40805 227.386 0.810181ZM59.4473 0.480042C59.4812 0.416288 59.5125 0.349485 59.541 0.280029C58.9981 1.21322 58.3525 2.00122 57.632 2.61005C56.7939 3.25431 55.8874 3.67722 54.9527 3.86005C53.7003 4.1038 52.4348 4.16073 51.1749 4.03003C49.6466 3.88744 48.1256 3.60693 46.62 3.19003C44.8792 2.68629 43.1183 2.35225 41.3485 2.19003C37.5774 1.97003 33.4713 3.46003 29.4523 5.59003C27.9895 6.36533 26.5577 7.18833 25.1553 7.99441C22.7049 9.40287 20.3445 10.7597 18.0653 11.72C16.3805 12.4563 14.6575 12.9814 12.9143 13.29C11.3949 13.5503 9.86116 13.5671 8.33936 13.34C6.12689 13.0572 3.97807 12.09 2.02958 10.5C1.5033 10.0654 0.997522 9.57759 0.515771 9.04004L0.140668 8.62003C0.0535908 8.49003 0 8.49005 0 8.49005C0.591465 9.33762 1.25064 10.0731 1.9626 10.68C3.91294 12.3405 6.07743 13.3631 8.31257 13.68C9.85102 13.9257 11.4026 13.9257 12.9411 13.68C14.7043 13.3884 16.4477 12.8732 18.1523 12.14C20.5567 11.1478 23.0382 9.72976 25.6188 8.25517L25.6188 8.25516L25.6188 8.25515L25.6189 8.25512C26.9133 7.51546 28.2326 6.76157 29.5796 6.04004C33.612 3.88004 37.6443 2.43004 41.3552 2.63004C43.1105 2.77351 44.8578 3.08414 46.5866 3.56003C48.1033 3.96737 49.6358 4.23124 51.1749 4.35004C52.45 4.45704 53.729 4.37329 54.9929 4.10004C55.9526 3.89846 56.8791 3.43401 57.7258 2.73004C58.2579 2.27796 58.7393 1.70434 59.1525 1.03003L59.4473 0.480042ZM27.7042 1.65002C28.0072 1.31786 28.2937 0.953586 28.5616 0.560028C28.2298 0.83351 27.9139 1.14794 27.6172 1.50003C26.7815 2.35829 25.9088 3.13331 25.0048 3.82004C22.0142 6.09883 18.7222 7.35909 15.366 7.51004C12.0142 7.68267 8.68046 6.70778 5.62002 4.66003C4.69525 4.04932 3.87873 3.12482 3.23543 1.96005C3.02063 1.5101 2.83024 1.03524 2.66607 0.540039C2.65267 0.550039 2.67947 0.690053 2.73306 0.960052C2.83338 1.35627 2.96611 1.73245 3.12825 2.08005C3.74701 3.32938 4.56417 4.32939 5.50615 4.99005C8.58709 7.16383 11.9744 8.19308 15.3794 7.99005C17.2472 7.89232 19.1003 7.4592 20.8988 6.70004C22.3623 6.05907 23.7784 5.19798 25.1254 4.13004C26.0269 3.4047 26.8891 2.5755 27.7042 1.65002ZM95.0085 12.2702L95.4439 12.5102C95.8697 12.7333 96.3064 12.9072 96.7501 13.0302C98.3961 13.4648 100.091 13.0907 101.581 11.9675C99.8284 10.012 97.7456 8.82108 95.5645 8.5302C92.7388 8.11593 89.9065 9.21467 87.5734 11.6302C87.2682 11.8924 87.0444 12.3235 86.9505 12.8302C86.9504 13.0843 87.0005 13.3328 87.0947 13.5445C87.1888 13.7562 87.3227 13.9217 87.4796 14.0202C87.8229 14.2992 88.1937 14.4949 88.5782 14.6002L89.7839 15.0102C91.4048 15.5502 93.0794 16.0802 94.8143 16.4602C96.586 16.8797 98.3794 17.0604 100.173 17.0002C101.093 16.964 102.011 16.8337 102.919 16.6102C103.375 16.4902 103.83 16.3602 104.259 16.1802C104.719 16.034 105.167 15.8196 105.599 15.5402C106.264 15.1441 106.853 14.5086 107.313 13.6902C107.528 13.3001 107.672 12.8331 107.729 12.3351C107.787 11.8372 107.757 11.3254 107.641 10.8502C107.368 9.90808 106.898 9.12265 106.302 8.61021C105.708 8.06422 105.08 7.60542 104.426 7.24022C101.895 5.82204 99.23 5.00544 96.529 4.8202C91.9668 4.44207 87.4024 5.50169 83.1325 7.93019C80.2465 9.5517 77.5272 11.77 75.0543 14.5202C74.1903 15.5202 73.5204 16.3002 73.0984 16.8802L72.5961 17.5202L72.4219 17.7202C72.4219 17.7202 72.4688 17.6302 72.576 17.4802L73.0516 16.8102C73.4602 16.2002 74.1166 15.3802 74.9673 14.3602C81.1444 7.2965 88.8057 3.75103 96.5759 4.36021C99.3023 4.54271 101.992 5.36617 104.547 6.80022C105.224 7.17579 105.875 7.65147 106.489 8.2202C107.152 8.78904 107.674 9.66251 107.976 10.7102C108.111 11.2689 108.146 11.8699 108.079 12.455C108.012 13.0401 107.845 13.5896 107.595 14.0502C107.098 14.9341 106.463 15.6211 105.746 16.0502C105.302 16.3408 104.84 16.5652 104.366 16.7202C103.904 16.9002 103.442 17.0302 102.973 17.1502C102.049 17.3824 101.116 17.5161 100.18 17.5502C98.3701 17.608 96.5609 17.4206 94.7741 16.9902C93.0325 16.6002 91.3513 16.0602 89.7303 15.5102L88.5246 15.0902C88.1071 14.9768 87.7046 14.7641 87.3323 14.4602C87.1387 14.297 86.97 14.0757 86.8366 13.8102C86.6976 13.5203 86.6334 13.1652 86.6558 12.8102C86.7032 12.4929 86.7944 12.1939 86.9236 11.9322C87.0528 11.6705 87.2171 11.4519 87.406 11.2902C89.8011 8.82899 92.7063 7.72604 95.598 8.18019C97.875 8.5069 100.041 9.80139 101.841 11.9102L101.955 12.0502L101.827 12.1502C100.269 13.3494 98.4831 13.7232 96.7635 13.2102C96.1476 13.0444 95.5545 12.7267 95.0085 12.2702ZM131.722 1.69C131.671 1.35684 131.577 1.04126 131.447 0.76001C131.672 1.94919 131.749 3.18949 131.675 4.42001C131.333 7.37943 130.364 10.0965 128.909 12.17C128.159 13.3816 127.321 14.4649 126.41 15.4C125.659 16.1464 124.855 16.7668 124.012 17.25C123.122 17.7507 122.419 18.0183 122.011 18.1733C121.76 18.2691 121.621 18.3218 121.621 18.36C121.846 18.3696 122.071 18.3394 122.291 18.27C122.902 18.1157 123.504 17.8917 124.092 17.6C124.966 17.1497 125.8 16.5455 126.578 15.8C127.523 14.8701 128.389 13.772 129.156 12.53C130.66 10.3832 131.631 7.53791 131.909 4.46002C131.975 3.52726 131.911 2.58432 131.722 1.69ZM182.294 17.5201C181.886 16.8519 181.452 16.2207 180.994 15.6301C179.726 14.0548 178.196 13.0185 176.567 12.6301C175.453 12.3884 174.32 12.4358 173.218 12.7701C171.923 13.2205 170.594 13.4055 169.266 13.3201C167.812 13.1201 166.506 11.8101 165.327 10.4301C164.154 8.93365 162.817 7.74971 161.375 6.93011C158.532 5.51324 155.465 5.4434 152.594 6.73012C150.253 7.79109 148.055 9.4526 146.096 11.6401C144.769 13.1097 143.512 14.7134 142.332 16.4401L141.374 17.8601C141.266 18.0322 141.149 18.1926 141.026 18.3401C141.109 18.1396 141.208 17.9549 141.32 17.7901C141.521 17.4401 141.829 16.9301 142.238 16.3001C143.386 14.5073 144.627 12.8522 145.949 11.3501C147.915 9.08702 150.135 7.36665 152.507 6.27013C155.441 4.92294 158.585 4.98237 161.496 6.44012C162.964 7.28257 164.323 8.49706 165.515 10.0301C166.693 11.4001 167.919 12.6401 169.279 12.8401C170.578 12.9338 171.88 12.769 173.151 12.3501C174.291 12.0222 175.46 11.9918 176.607 12.2601C178.267 12.6869 179.816 13.7909 181.081 15.4501C181.555 16.0422 181.964 16.7405 182.294 17.5201ZM249.671 1.89999H250C249.886 1.85247 249.768 1.83889 249.651 1.86001L248.727 1.67001L248.057 1.55001L247.253 1.49999C246.602 1.44369 245.949 1.44369 245.297 1.49999L244.159 1.55001L242.933 1.74001C242.323 1.80555 241.685 1.97185 241.016 2.14622C240.766 2.21129 240.512 2.27748 240.254 2.33999C238.216 2.96992 236.215 3.84616 234.272 4.96001C232.339 6.11577 230.471 7.50015 228.686 9.1C228.464 9.31995 228.243 9.53293 228.025 9.74282C227.461 10.2868 226.918 10.81 226.435 11.38C226.254 11.594 226.062 11.8017 225.873 12.0067L225.873 12.0069L225.873 12.0071L225.873 12.0072L225.873 12.0073C225.726 12.166 225.581 12.323 225.444 12.48L224.573 13.57C224.1 14.152 223.7 14.7339 223.341 15.2584C223.268 15.3648 223.196 15.4688 223.126 15.57L222.557 16.4L222.108 17.16L221.498 18.16C221.365 18.4 221.304 18.55 221.304 18.55C221.395 18.4589 221.479 18.3514 221.552 18.23L222.222 17.23L222.684 16.52L223.28 15.72C223.337 15.6424 223.394 15.5632 223.452 15.4826L223.456 15.4772C223.832 14.9571 224.249 14.3811 224.74 13.82L225.584 12.69L226.583 11.62C227.038 11.0964 227.546 10.6191 228.075 10.122C228.324 9.88798 228.578 9.64962 228.833 9.39999C230.613 7.84353 232.467 6.48327 234.379 5.33001C236.305 4.22757 238.284 3.34829 240.301 2.7C240.574 2.63094 240.842 2.55773 241.106 2.48587C241.757 2.308 242.379 2.13834 242.98 2.05999L244.192 1.85L245.318 1.74999H247.26H248.057L248.727 1.82L249.671 1.89999ZM187.384 17.1502C186.922 16.1573 186.4 15.2301 185.824 14.3802C184.19 12.1629 182.238 10.5344 180.117 9.62019C178.658 8.96871 177.169 8.4774 175.662 8.15018C174.997 7.99433 174.314 7.85025 173.612 7.70208L173.612 7.70198C172.602 7.48892 171.552 7.2674 170.458 6.99021C168.544 6.47478 166.655 5.76988 164.804 4.8802C162.84 3.89839 160.823 3.16908 158.776 2.7002C154.784 2.094 150.753 2.92379 147.02 5.12019C145.386 6.04352 143.791 7.11555 142.244 8.33021C140.778 9.45021 139.438 10.5502 138.226 11.5802C136.036 13.4298 134.247 15.0295 132.939 16.1984L132.939 16.1986L132.512 16.5802L130.971 17.9902L130.569 18.3502L130.569 18.3504C130.476 18.4303 130.429 18.4702 130.422 18.4602C130.459 18.4015 130.502 18.351 130.549 18.3102L130.931 17.9002C131.273 17.5502 131.775 17.0502 132.438 16.4102L132.499 16.3522C133.835 15.0857 135.71 13.3083 138.098 11.2302C139.317 10.1802 140.65 9.0602 142.117 7.9202C143.67 6.67622 145.274 5.58068 146.92 4.64021C150.695 2.38897 154.779 1.53797 158.823 2.16019C160.891 2.63354 162.928 3.36956 164.911 4.36021C166.747 5.25219 168.62 5.96372 170.518 6.49021C171.524 6.75537 172.508 6.97171 173.462 7.18136L173.462 7.18139C174.235 7.35124 174.987 7.51671 175.716 7.7002C177.234 8.04093 178.732 8.5558 180.197 9.24021C182.345 10.2038 184.308 11.9178 185.924 14.2402C186.517 15.0804 187.011 16.0643 187.384 17.1502ZM123.563 1.46005C123.612 1.07121 123.625 0.674271 123.603 0.280029C123.406 1.70595 123.128 3.10433 122.773 4.46005C121.867 7.6791 120.372 10.4518 118.459 12.4601C116.456 14.2922 114.33 15.8071 112.116 16.98L110.106 18.05C109.85 18.1559 109.603 18.3035 109.369 18.4901C109.633 18.4533 109.894 18.3728 110.146 18.25C110.635 18.06 111.339 17.75 112.203 17.32C114.467 16.2445 116.633 14.7566 118.653 12.89C120.632 10.8373 122.149 7.94108 123.007 4.58005C123.271 3.57501 123.458 2.52824 123.563 1.46005ZM309.541 0.280029C309.512 0.349485 309.481 0.416288 309.447 0.480042L309.152 1.03003C308.739 1.70434 308.258 2.27796 307.726 2.73004C306.879 3.43401 305.953 3.89846 304.993 4.10004C303.729 4.37329 302.45 4.45704 301.175 4.35004C299.636 4.23124 298.103 3.96737 296.586 3.56003C294.858 3.08414 293.11 2.77351 291.355 2.63004C287.644 2.43004 283.612 3.88004 279.58 6.04004C278.233 6.76152 276.913 7.51536 275.619 8.25497L275.619 8.25512C273.038 9.72973 270.557 11.1478 268.152 12.14C266.448 12.8732 264.704 13.3884 262.941 13.68C261.403 13.9257 259.851 13.9257 258.312 13.68C256.077 13.3631 253.913 12.3405 251.963 10.68C251.251 10.0731 250.591 9.33762 250 8.49005C250 8.49005 250.054 8.49003 250.141 8.62003L250.516 9.04004C250.997 9.57759 251.503 10.0654 252.029 10.5C253.978 12.09 256.127 13.0572 258.339 13.34C259.861 13.5671 261.395 13.5503 262.914 13.29C264.657 12.9814 266.38 12.4563 268.065 11.72C270.344 10.7598 272.704 9.4032 275.154 7.99492L275.155 7.99463L275.155 7.99443C276.558 7.18835 277.989 6.36534 279.452 5.59003C283.471 3.46003 287.577 1.97003 291.348 2.19003C293.118 2.35225 294.879 2.68629 296.62 3.19003C298.125 3.60693 299.647 3.88744 301.175 4.03003C302.435 4.16073 303.7 4.1038 304.953 3.86005C305.887 3.67722 306.794 3.25431 307.632 2.61005C308.352 2.00122 308.998 1.21322 309.541 0.280029ZM277.704 1.65002C278.007 1.31786 278.294 0.953586 278.562 0.560028C278.23 0.83351 277.914 1.14794 277.617 1.50003C276.781 2.35829 275.909 3.13331 275.005 3.82004C272.014 6.09883 268.722 7.35909 265.366 7.51004C262.014 7.68267 258.68 6.70778 255.62 4.66003C254.695 4.04932 253.879 3.12482 253.235 1.96005C253.021 1.5101 252.83 1.03524 252.666 0.540039C252.653 0.550039 252.679 0.690053 252.733 0.960052C252.833 1.35627 252.966 1.73245 253.128 2.08005C253.747 3.32938 254.564 4.32939 255.506 4.99005C258.587 7.16383 261.974 8.19308 265.379 7.99005C267.247 7.89232 269.1 7.4592 270.899 6.70004C272.362 6.05907 273.778 5.19798 275.125 4.13004C276.027 3.4047 276.889 2.5755 277.704 1.65002ZM345.008 12.2702L345.444 12.5102C345.87 12.7333 346.306 12.9072 346.75 13.0302C348.396 13.4648 350.091 13.0907 351.581 11.9675C349.828 10.012 347.745 8.82108 345.564 8.5302C342.739 8.11593 339.906 9.21467 337.573 11.6302C337.268 11.8924 337.044 12.3235 336.95 12.8302C336.95 13.0843 337 13.3328 337.095 13.5445C337.189 13.7562 337.323 13.9217 337.48 14.0202C337.823 14.2992 338.194 14.4949 338.578 14.6002L339.784 15.0102C341.405 15.5502 343.079 16.0802 344.814 16.4602C346.586 16.8797 348.379 17.0604 350.173 17.0002C351.093 16.964 352.011 16.8337 352.919 16.6102C353.375 16.4902 353.83 16.3602 354.259 16.1802C354.718 16.034 355.167 15.8196 355.598 15.5402C356.263 15.1441 356.853 14.5086 357.313 13.6902C357.528 13.3001 357.672 12.8331 357.729 12.3351C357.787 11.8372 357.757 11.3254 357.641 10.8502C357.368 9.90808 356.898 9.12265 356.302 8.61021C355.708 8.06422 355.08 7.60542 354.426 7.24022C351.895 5.82204 349.23 5.00544 346.529 4.8202C341.967 4.44207 337.402 5.50169 333.132 7.93019C330.246 9.5517 327.527 11.77 325.054 14.5202C324.19 15.5202 323.52 16.3002 323.098 16.8802L322.596 17.5202L322.422 17.7202C322.422 17.7202 322.469 17.6302 322.576 17.4802L323.051 16.8102C323.46 16.2002 324.116 15.3802 324.967 14.3602C331.144 7.2965 338.806 3.75103 346.576 4.36021C349.302 4.54271 351.992 5.36617 354.547 6.80022C355.224 7.17579 355.875 7.65147 356.489 8.2202C357.152 8.78904 357.673 9.66251 357.976 10.7102C358.11 11.2689 358.146 11.8699 358.079 12.455C358.012 13.0401 357.845 13.5896 357.594 14.0502C357.098 14.9341 356.463 15.6211 355.746 16.0502C355.302 16.3408 354.84 16.5652 354.366 16.7202C353.904 16.9002 353.442 17.0302 352.973 17.1502C352.049 17.3824 351.116 17.5161 350.18 17.5502C348.37 17.608 346.561 17.4206 344.774 16.9902C343.032 16.6002 341.351 16.0602 339.73 15.5102L338.524 15.0902C338.107 14.9768 337.704 14.7641 337.332 14.4602C337.139 14.297 336.97 14.0757 336.837 13.8102C336.698 13.5203 336.633 13.1652 336.656 12.8102C336.703 12.4929 336.794 12.1939 336.924 11.9322C337.053 11.6705 337.217 11.4519 337.406 11.2902C339.801 8.82899 342.706 7.72604 345.598 8.18019C347.875 8.5069 350.041 9.80139 351.841 11.9102L351.955 12.0502L351.827 12.1502C350.268 13.3494 348.483 13.7232 346.763 13.2102C346.148 13.0444 345.554 12.7267 345.008 12.2702ZM381.722 1.69C381.67 1.35684 381.577 1.04126 381.447 0.76001C381.671 1.94919 381.749 3.18949 381.675 4.42001C381.333 7.37943 380.363 10.0965 378.908 12.17C378.158 13.3816 377.32 14.4649 376.41 15.4C375.659 16.1464 374.854 16.7668 374.012 17.25C373.122 17.7507 372.418 18.0183 372.011 18.1733C371.759 18.2691 371.621 18.3218 371.621 18.36C371.846 18.3696 372.07 18.3394 372.291 18.27C372.902 18.1157 373.504 17.8917 374.092 17.6C374.966 17.1497 375.8 16.5455 376.577 15.8C377.523 14.8701 378.389 13.772 379.156 12.53C380.66 10.3832 381.63 7.53791 381.909 4.46002C381.975 3.52726 381.911 2.58432 381.722 1.69ZM432.294 17.5201C431.886 16.8519 431.452 16.2207 430.994 15.6301C429.726 14.0548 428.196 13.0185 426.567 12.6301C425.453 12.3884 424.32 12.4358 423.217 12.7701C421.923 13.2205 420.593 13.4055 419.266 13.3201C417.812 13.1201 416.506 11.8101 415.327 10.4301C414.154 8.93365 412.817 7.74971 411.375 6.93011C408.532 5.51324 405.464 5.4434 402.594 6.73012C400.253 7.79109 398.055 9.4526 396.096 11.6401C394.769 13.1097 393.512 14.7134 392.332 16.4401L391.374 17.8601C391.266 18.0322 391.149 18.1926 391.026 18.3401C391.108 18.1396 391.207 17.9549 391.32 17.7901C391.521 17.4401 391.829 16.9301 392.238 16.3001C393.386 14.5073 394.627 12.8522 395.949 11.3501C397.914 9.08702 400.135 7.36665 402.506 6.27013C405.441 4.92294 408.585 4.98237 411.496 6.44012C412.964 7.28257 414.323 8.49706 415.514 10.0301C416.693 11.4001 417.919 12.6401 419.279 12.8401C420.578 12.9338 421.88 12.769 423.151 12.3501C424.29 12.0222 425.46 11.9918 426.607 12.2601C428.267 12.6869 429.815 13.7909 431.081 15.4501C431.555 16.0422 431.964 16.7405 432.294 17.5201ZM477.386 0.810181C477.505 0.618301 477.608 0.406938 477.694 0.180176C477.56 0.383058 477.439 0.604002 477.333 0.840179C477.245 0.974515 477.15 1.14049 477.041 1.32949L477.039 1.33345L477.037 1.33592L477.036 1.33791L477.036 1.338L477.036 1.33847L477.035 1.33923L477.035 1.33959L477.035 1.34053C476.845 1.66996 476.616 2.06819 476.321 2.4902C475.046 4.46025 473.646 6.24182 472.141 7.81018C469.924 10.1623 467.524 12.1063 464.994 13.6002C463.508 14.4998 461.976 15.2187 460.413 15.7502C458.741 16.3616 457.029 16.6969 455.309 16.7502C451.978 16.7044 448.685 15.6852 445.616 13.7502C443.095 12.2262 440.709 10.2482 438.509 7.8602C437.019 6.26094 435.629 4.46361 434.356 2.4902C434.043 2.05564 433.801 1.63 433.606 1.28502L433.605 1.28419L433.605 1.28366L433.604 1.28222L433.604 1.28152L433.601 1.2777C433.506 1.10969 433.422 0.961058 433.345 0.840179C433.232 0.63958 433.109 0.452355 432.977 0.280182C433.069 0.500881 433.172 0.711423 433.285 0.910187C433.349 1.02339 433.419 1.15598 433.498 1.30427C433.69 1.66686 433.933 2.12337 434.256 2.62018C435.498 4.66226 436.874 6.51471 438.362 8.15018C440.563 10.5861 442.96 12.6017 445.496 14.1502C448.604 16.1104 451.941 17.1301 455.315 17.1502C457.059 17.103 458.793 16.7677 460.486 16.1502C462.067 15.6097 463.616 14.8739 465.115 13.9502C467.659 12.4178 470.066 10.4228 472.282 8.01019C473.786 6.40764 475.171 4.57061 476.415 2.53018C476.758 1.98215 477.082 1.40805 477.386 0.810181ZM471.21 0C471.21 0 471.13 0.120009 470.969 0.290009L470.897 0.367022C470.738 0.536297 470.515 0.773355 470.233 1.04001C469.318 1.91227 468.372 2.71008 467.399 3.42999C465.956 4.51521 464.458 5.42808 462.918 6.16C461.029 7.08583 459.058 7.58796 457.07 7.64999C453.457 7.52163 449.908 6.18195 446.688 3.73001C445.713 3.00867 444.773 2.18668 443.875 1.27002C443.595 0.99126 443.386 0.742848 443.23 0.557848L443.23 0.557089L443.229 0.556635L443.229 0.556069L443.165 0.480011C443.077 0.397317 442.998 0.296264 442.93 0.179993C443.282 0.455365 443.622 0.76262 443.949 1.10001C444.869 1.9414 445.82 2.70914 446.795 3.39999C450.003 5.72211 453.506 6.99386 457.07 7.13C459.024 7.06818 460.962 6.58658 462.824 5.70001C464.354 4.99785 465.847 4.12884 467.292 3.10001C468.524 2.23001 469.502 1.44002 470.166 0.860016C470.501 0.538601 470.85 0.251267 471.21 0ZM499.672 1.89999H500C499.887 1.85247 499.768 1.83889 499.652 1.86001L498.727 1.67001L498.057 1.55001L497.254 1.49999C496.602 1.44369 495.949 1.44369 495.298 1.49999L494.159 1.55001L492.933 1.74001C492.324 1.80555 491.685 1.97185 491.016 2.14622C490.766 2.21129 490.512 2.27748 490.254 2.33999C488.216 2.96992 486.215 3.84616 484.272 4.96001C482.339 6.11577 480.471 7.50015 478.686 9.1C478.465 9.31903 478.245 9.53115 478.028 9.74018L478.025 9.74295L478.025 9.74316C477.461 10.287 476.919 10.8101 476.435 11.38C476.254 11.5942 476.062 11.8021 475.873 12.0073L475.872 12.0077C475.726 12.1662 475.581 12.3231 475.444 12.48L474.573 13.57C474.1 14.1519 473.701 14.7337 473.341 15.2581C473.268 15.3646 473.197 15.4687 473.126 15.57L472.557 16.4L472.108 17.16L471.499 18.16C471.365 18.4 471.305 18.55 471.305 18.55C471.396 18.4589 471.479 18.3514 471.552 18.23L472.222 17.23L472.684 16.52L473.281 15.72C473.338 15.6407 473.397 15.5596 473.456 15.4772L473.457 15.4769C473.833 14.9568 474.249 14.381 474.741 13.82L475.585 12.69L476.583 11.62C477.038 11.0964 477.546 10.6191 478.076 10.122L478.076 10.1217L478.076 10.1213C478.325 9.88755 478.579 9.64939 478.833 9.39999C480.613 7.84353 482.467 6.48327 484.38 5.33001C486.305 4.22757 488.285 3.34829 490.301 2.7C490.575 2.63094 490.843 2.55772 491.106 2.48585C491.758 2.30799 492.379 2.13833 492.98 2.05999L494.193 1.85L495.318 1.74999H497.26H498.057L498.727 1.82L499.672 1.89999ZM437.384 17.1502C436.922 16.1573 436.399 15.2301 435.823 14.3802C434.19 12.1629 432.238 10.5344 430.116 9.62019C428.658 8.96871 427.169 8.4774 425.662 8.15018C424.997 7.99432 424.314 7.85024 423.612 7.70207L423.612 7.70198L423.611 7.70192C422.602 7.48888 421.552 7.26737 420.458 6.99021C418.544 6.47478 416.655 5.76988 414.804 4.8802C412.84 3.89839 410.823 3.16908 408.776 2.7002C404.784 2.094 400.753 2.92379 397.02 5.12019C395.386 6.04352 393.791 7.11555 392.244 8.33021C390.777 9.45021 389.438 10.5502 388.225 11.5802C386.036 13.4302 384.246 15.0302 382.938 16.1991L382.512 16.5802L380.971 17.9902L380.569 18.3502L380.569 18.3506L380.569 18.3508C380.475 18.4304 380.429 18.4702 380.422 18.4602C380.459 18.4015 380.502 18.351 380.549 18.3102L380.931 17.9002C381.273 17.5502 381.775 17.0502 382.438 16.4102L382.499 16.3522C383.835 15.0857 385.71 13.3083 388.098 11.2302C389.317 10.1802 390.65 9.0602 392.117 7.9202C393.67 6.67622 395.274 5.58068 396.92 4.64021C400.695 2.38897 404.779 1.53797 408.823 2.16019C410.89 2.63354 412.927 3.36956 414.911 4.36021C416.747 5.25219 418.62 5.96372 420.518 6.49021C421.524 6.75537 422.508 6.97171 423.462 7.18136C424.234 7.35122 424.987 7.5167 425.716 7.7002C427.234 8.04093 428.732 8.5558 430.197 9.24021C432.345 10.2038 434.308 11.9178 435.924 14.2402C436.517 15.0804 437.011 16.0643 437.384 17.1502ZM373.563 1.46005C373.612 1.07121 373.625 0.674271 373.603 0.280029C373.406 1.70595 373.128 3.10433 372.772 4.46005C371.867 7.6791 370.372 10.4518 368.459 12.4601C366.455 14.2922 364.33 15.8071 362.116 16.98L360.106 18.05C359.85 18.1559 359.603 18.3035 359.369 18.4901C359.633 18.4533 359.894 18.3728 360.146 18.25C360.635 18.06 361.339 17.75 362.203 17.32C364.466 16.2445 366.633 14.7566 368.653 12.89C370.631 10.8373 372.149 7.94108 373.007 4.58005C373.271 3.57501 373.458 2.52824 373.563 1.46005Z" fill="white"/>
</svg>
